<?xml version="1.0" encoding="utf-8"?>
<!-- Generator: Adobe Illustrator 19.0.0, SVG Export Plug-In . SVG Version: 6.00 Build 0)  -->
<svg version="1.1" id="svg" xmlns="http://www.w3.org/2000/svg" xmlns:xlink="http://www.w3.org/1999/xlink" x="0px" y="0px"
	 viewBox="-270 386.1 53.6 69.8" style="enable-background:new -270 386.1 53.6 69.8;" xml:space="preserve">
<style type="text/css">
	.st0{fill:#F97316;}
	.st1{fill:#E5E5E5;}
	.st2{fill:#FB923C;}
	.st3{display:none;fill:#040404;}
	.st4{display:none;fill:#343434;}
	.st5{fill:#343434;}
	.st6{fill:#4F4F4F;}
</style>
<g>
	<g>
		<path class="st0" d="M-253.3,402.6c2.4-1.7,16.4-1.4,19.9,0c0,0,1.7,1.7,2.4,2.5c3.1,3.9,4,7.5,3.9,12.3c0.7,1.1,1.5,2.3,2,3.5
			c0.5,1,0.9,2.1,1.3,3.2c2.5,3.5,8.6,14.5,4.4,18.3c-1.1,1-2.8,1.1-4.2,0.7c-1.5-1-1.5-0.8-2.6-2.4c-1.9,3.1-6,7-6,7
			s-3,2.7-7.1,2.7c-4,0-5.9-0.1-9.5-0.2c-2.4-0.1-5.6-2.6-5.6-2.6s-4.5-4-6.3-6.8c-0.8,1.2-1.9,2.2-3.4,2.5c-1.1,0.2-2.3,0-3.2-0.6
			c-5-3.4,1.9-15.5,4.4-19c0.3-0.3,0.7-1.9,1-2.5c0.6-1.2,1.6-2.5,1.9-3.7c0.2-0.7,0.1-2.3,0.1-3
			C-259.1,409.1-257.2,406.1-253.3,402.6C-253.3,402.6-255.7,404.2-253.3,402.6z"/>
		<path class="st1" d="M-252.2,448.9c1.7-2.2,3.6-3.1,6.4-3.4c3.2-0.4,7.5-0.1,10.2,1.8c0.3,0.2,1,1.3,1.3,1.7
			c0.5-0.4,1.5-1,2.1-1.4c1.8,0.8,5.6,0.8,6.5,2.8c-0.1,5.4-35.7,5.1-35.1-0.2c0.7-1.1,2.9-1.7,4.1-2c0.8-0.2,1.6-0.4,2.5-0.5
			C-253.6,447.9-252.8,448.4-252.2,448.9z"/>
		<path class="st2" d="M-252.2,448.9c1.7-2.2,3.6-3.1,6.4-3.4c3.2-0.4,7.5-0.1,10.2,1.8c0.3,0.2,1,1.3,1.3,1.7
			c-0.7,1.2-1.1,1.9-2.4,2.6c-3.1,1.6-8.3,1.6-11.6,0.6C-250.3,451.4-251.3,450.6-252.2,448.9z"/>
		<path class="st3" d="M-441.6,695.6c0.1,1.3-1.4,3.6-2.1,4.8c-0.9,1.8-1.7,3.6-2.4,5.6c-0.9,2.6-2,5.5,0.1,7.8
			c1.4,1.4,3.3,1.2,4.7-0.1c0.4-0.4,0.8-1.2,1.3-1.4c0.3,0.1,0.3,0.3,0.4,0.5c-0.8,1.2-1.9,2.2-3.4,2.5c-1.1,0.2-2.3,0-3.2-0.6
			C-450.9,711.3-444,699.1-441.6,695.6L-441.6,695.6z"/>
		<path class="st3" d="M-402.5,696.1c2.5,3.5,8.6,14.5,4.4,18.3c-1.1,1-2.8,1.1-4.2,0.7c0.3-0.2,0.4-0.3,0.7-0.5
			c0.3,0,0.8,0.1,1.1,0c6.3-0.7,1.8-10,0.4-13.3C-401,699.6-402.4,698-402.5,696.1L-402.5,696.1z"/>
		<path class="st4" d="M-405,712.7l0.3-0.5c0.5,0.2,1.1,1.3,1.6,1.7c0.5,0.3,0.8,0.5,1.3,0.7c-0.3,0.2-0.4,0.3-0.7,0.5
			C-403.8,714.1-403.8,714.3-405,712.7L-405,712.7z"/>
		<path class="st5" d="M-248.5,411.4c0.9-0.3,1.9,0.2,2.1,1.1c0.3,0.9-0.2,1.9-1.2,2.1c-0.9,0.3-1.9-0.2-2.1-1.2
			C-249.9,412.7-249.4,411.7-248.5,411.4z"/>
		<path class="st5" d="M-239.5,411.4c0.9-0.3,1.8,0.2,2.1,1.1s-0.1,1.8-1,2.1c-0.6,0.2-1.2,0.1-1.7-0.3s-0.7-1-0.6-1.6
			C-240.5,412.1-240.1,411.6-239.5,411.4L-239.5,411.4z"/>
		<path class="st5" d="M-247,420.9c1,0.1,2.2,1.4,3.8,1.4c1.3,0,2.6-1.2,3.4-1.1c0.3,0.4,0.2,0.1,0.2,0.7c-1.1,0.8-2.2,1.3-3.6,1.3
			C-244.7,423.1-247.1,422.7-247,420.9z"/>
		<path class="st6" d="M-243.4,387.6c0.7,0.2,1.3,0.4,2,0.6c4.4,1.4,8.7,3,13.1,4.3c0,0.9,0,2,0,2.9c-1.6,0.6-3.3,1.3-4.9,1.9
			c-0.3,0.4-0.2,4.5-0.2,5.3c-3.4-0.9-6.6-0.3-9.8,0.9c-3.3-1-6.5-1.9-10-1c0-0.9,0.1-4.8-0.1-5.3c-2.2-0.8-4.5-1.6-6.7-2.5
			c-0.4-0.2-0.9-0.3-1-0.8c0.2-0.3,0.5-0.5,0.8-0.6C-254.7,391.5-249.1,389.4-243.4,387.6L-243.4,387.6z"/>
		<path class="st5" d="M-243.4,387.6c0.7,0.2,1.3,0.4,2,0.6c4.4,1.4,8.7,3,13.1,4.3c0,0.9,0,2,0,2.9c-1.6,0.6-3.3,1.3-4.9,1.9
			c-0.1-0.3-0.2-1.8-0.2-2.3c-2.9-3.6-14.5-3.1-18.4-1.1c-2,1-1.1,1.8-1.6,3.2c-2.2-0.8-4.5-1.6-6.7-2.5c-0.4-0.2-0.9-0.3-1-0.8
			c0.2-0.3,0.5-0.5,0.8-0.6C-254.7,391.5-249.1,389.4-243.4,387.6L-243.4,387.6z"/>
		<path class="st0" d="M-228.3,392.6c0.4,0,0.7,0,1,0.3c0.7,0.3,1.5,0.5,2,1c0,0.7-1.3,1-2,1.2c-0.1,0.7-0.1,2.5-0.1,3.4
			c0,1.8,0.4,1.4,0.5,2.8c-0.6,1.1,0,2.2,0.4,3.5c-0.9,0.1-1.9,0-2.8,0.1c0.2-1,0.7-2,0.8-2.8c0-0.1-0.4-0.7-0.4-0.7
			c0.5-1.4,0.6-2.2,0.7-3.7c-0.1-0.6,0-1.3-0.1-2C-228.3,394.5-228.3,393.5-228.3,392.6L-228.3,392.6z"/>
		<path class="st2" d="M-228.3,392.6c0.4,0,0.7,0,1,0.3c0.7,0.3,1.5,0.5,2,1c0,0.7-1.3,1-2,1.2c-0.1,0.7-0.1,2.5-0.1,3.4
			c-0.3-1-0.2-2.6-0.4-2.9l0.2,0.2l-0.1-0.4c-0.3,0.2-0.1,1.7-0.4,2.1c-0.1-0.6,0-1.3-0.1-2C-228.3,394.5-228.3,393.5-228.3,392.6
			L-228.3,392.6z"/>
	</g>
</g>
</svg>
