<?xml version="1.0" encoding="utf-8"?>
<!-- Generator: Adobe Illustrator 19.0.0, SVG Export Plug-In . SVG Version: 6.00 Build 0)  -->
<svg version="1.1" id="Layer_1" xmlns="http://www.w3.org/2000/svg" xmlns:xlink="http://www.w3.org/1999/xlink" x="0px" y="0px"
	 viewBox="0 0 84.3 47.1" style="enable-background:new 0 0 84.3 47.1;" xml:space="preserve">
<style type="text/css">
	.st0{fill:#282828;}
</style>
<path class="st0" d="M75.3,32.3c0-0.2,0.1-0.7,0.3-0.8c9.1-4.5,11.1-17.4,4.8-25C74.5-0.7,63.4,0,55.1,0H38.8H20
	c-2.8,0-7.2-0.1-9.8,0.1c-3.8,0.7-3.3,5-1.3,6c1.7,1,8.3,0.6,10.3,0.6h15.6c1.6,0,3.2,0,4.8,0c0.8,0,2.7-0.1,2.7,1
	c0.1,0.9,0.2,2.5,0.1,3.6c-0.1,0.8-0.6,1.4-1.4,1.5c-6.3,1-34.1,0.1-38.4,0.6C1.2,13.6,0,15.3,0,16.7c0,0.8,0.3,1.7,0.9,2.3
	c0.9,1,2.7,1.3,4,1.3c10.9-0.1,21.9,0,32.8-0.1c0.7,0,2.1,0,3.2,0.1c0.7,0.1,1.3,0.7,1.4,1.5c0.1,0.9,0.1,2.1,0,3
	c-0.1,0.7-0.7,1.3-1.4,1.4c-1.7,0.3-4.6,0.2-5.8,0.2c-3.5,0.1-6.9,0.1-10.4,0.1c-3.6,0-11.1-0.8-8.4,5.5c0.9,2,7.2,1.4,9.1,1.4h13.1
	c0.7,0,2.8-0.2,3.4,0c0.1,0,0.2,0.2,0.2,0.2c0.6,0.9,0.6,3.6,0.4,4.6c-0.1,0.4-0.2,0.9-0.6,1.1c-0.9,0.6-13.8-0.2-16.6,0.4
	c-0.5,0.1-0.9,0.3-1.3,0.6c-0.8,0.9-1.6,1.9-1.6,3.1c0,0.9,0.3,1.7,0.9,2.3c1,1,2.4,1.3,3.7,1.3c2.5,0,28.1,0,28.1,0V35.6
	c0.1-0.8,1.1-1.5,1.9-1.6l0,0c1.7,0,4.6-0.3,5.8,0.8c1.2,1.2,2.2,3,3.2,4.5c1.1,1.7,3.4,5.8,4.9,6.9c0.4,0.3,1.1,0.7,1.6,0.8
	c1.8,0.2,9,0,10.8,0c0.4,0,0.9-0.1,1-0.5C84.5,44.8,76.4,34.3,75.3,32.3z M66.7,23.5c-2.3,0.8-11.6,0.6-11.6,0.6V10.4
	c0,0,9.9-0.4,11.9,0.4C73,13.4,72.8,21,66.7,23.5z"/>
</svg>
