<?xml version="1.0" encoding="utf-8"?>
<!-- Generator: Adobe Illustrator 19.0.0, SVG Export Plug-In . SVG Version: 6.00 Build 0)  -->
<svg version="1.1" id="svg" xmlns="http://www.w3.org/2000/svg" xmlns:xlink="http://www.w3.org/1999/xlink" x="0px" y="0px"
	 viewBox="-294 641.8 300 200" style="enable-background:new -294 641.8 300 200;" xml:space="preserve">
<g>
	<g>
		<path fill="#FDFEFF" d="M-294,641.8H6v9v9.5v9.1v6.8v9.1v17.4v11.6v10.2v16.9v100.4h-300v-92.1v-11.8v-19v-2.6V698v-17.2v-3v-8.1
			v-12.9v-6.6V641.8z"/>
		
			<linearGradient id="SVGID_1_" gradientUnits="userSpaceOnUse" x1="-143.9442" y1="651.7613" x2="-144.1229" y2="718.0508" gradientTransform="matrix(1 0 0 1 0 -0.22)">
			<stop  offset="0" style="stop-color:#BEE0F7"/>
			<stop  offset="1" style="stop-color:#FFFFFF"/>
		</linearGradient>
		<path fill="url(#SVGID_1_)" d="M-294,641.8H6v9v9.5v9.1v6.8v9.1v17.4c-2.6-0.6-9.4-2.4-11.7-1.8c-1.1,0.5-2.6,1.1-3.6,1.7
			c-5.1,2.8-11.7,3.2-16.6,6.2c-2,1.2-4.4,5.6-6.5,7.1c-0.9,0.7-3.2,3.1-4.2,3.4c-1.5,0.2-3,0.3-4.5,0.5c-1.1,1-2.1,2-3.1,2.9
			c-0.3,0.3-2.1,0.9-2.5,1.2c-0.6,0.4-1.9,1.8-2.5,2c-3.9,1.3-8.5,1.8-12.5,2.9c-0.8,0.2-3.8,2.2-4.8,2.7c-2,1.2-4.1,2.5-6.2,3.6
			c-1.6,0.9-4.3,1.4-5.7,2.5c-4.5-0.7-6-3.4-9.8-4.9c-0.4-0.1-0.4-0.3-0.7-0.6c-1.1,0.4-1.4,0.5-2.5,0.7l-1,1
			c-1.3-1.2-2.6-2.4-4-3.3c-0.7-0.4-1.5-0.2-1.7-0.3c-1-0.5-1.6-1.6-3-1.3c-0.5,0.1-1.7,0.6-1.9,0.3l-0.4-0.3
			c-1.5,0.1-4.8,1.1-5.6,2.5c-1.1,0.2-1.9,0.5-2.9,0.8c-1.2,0.4-0.6,0.9-1.4,1.4c-1.3,0-1-0.5-2.4,0c-0.3-0.2-0.3-0.2-0.5-0.4
			c-1,0.3-3,2.2-4.6,2.3c-0.3,0-1.4-0.4-1.7-0.4c-3.4,0.7-7,1-10.4,2c-0.3,0.1-1.1,0.6-1.4,0.8c-2.1,1.5-4.4,1.8-6.6,3.1
			c-0.8,0.2-0.7,0.3-1.5,0c-4.4-1.3-6.5-5.2-10.8-6.7c-1.3,0.5-2.6,1.2-4,1c-0.7-0.1-1.2-0.1-1.9-0.1c-0.9-0.8-1.1-1-2.1-1.6
			c-2.1,1.2-2.5,2.2-5,2.3c0,0-2.6,2.3-3.9,1.9c-0.3,0-1,0.7-1.2,0.9c-1.6,0.1-3,0.3-4.5,0.2c-2,1.2-4.4,2.6-6.4,3.7
			c-2,1.1-3.3,0.4-5.5,2.5v0.1c0.4,0.7,1.6,1.6,1.4,2.4l0.6,0.3c0.3-0.1,0.4-0.2,0.8-0.2c0.3,0.3,0.4,0.4,0.7,0.7
			c0.8-0.3,0.2-0.7,0.9-0.5c0.5,0.5,1.7,2.1,2.1,2.2c0.4-0.1,0.5-0.2,0.9-0.2c0.2,0.2,0.3,0.3,0.3,0.7c-1.8,0.1-7.4,0.3-8.9,0.7
			c-1.5,0.4-6.1,3.4-7.8,4.1c-4,1.7-8.1,3.2-12.1,4.9c-0.7,0.3-3.6,1.6-4.2,1.7c-3.4,0.6-7.4,0.5-10.8,1c-7.2-0.2-14.8,0-22,0
			c-4.3-2.7-8.6-4.5-13.8-3.9c-3.3,0.4-3.9-0.2-6.7-1.6c-4.6-2.2-8.5-5.2-13.1-7.5c-2.8,0.5-5.6,1-8.4,1.6c-1.9-0.7-4-1.4-6-2.1
			v-11.6v-19v-2.6V698v-17.2v-3v-8.1v-12.9v-6.6L-294,641.8z"/>
		<path fill="#D2E6DB" d="M-82,713.2c1.5,0.5,4.5,1.6,6.1,2.2c-3.4,2-6.5,4.7-10.1,6.5c-0.4,0.2-2,1-2.3,1.2c-0.6-0.3-4.3-3.5-4.9-4.1
			c2.5-1.4,5.8-3.3,8.5-4.3C-83.9,714.4-82.6,713.6-82,713.2z"/>
		<path fill="#D2E6DB" d="M-215.9,706.1c3.5,1.3,7.1,2.8,10.6,4.1c1.4,0.5,6.6,2.5,8.1,3.3l-3.7,1.2c-1.3,0.5-6.4,4.6-7.8,5.6
			c-3.5-2.3-6.6-4.8-10.2-6.8c-1.4-0.8-6-2-7.3-3.1C-223.5,709.4-218.5,707.1-215.9,706.1z"/>
		
			<linearGradient id="SVGID_2_" gradientUnits="userSpaceOnUse" x1="-48.0484" y1="705.3434" x2="-45.411" y2="730.4186" gradientTransform="matrix(1 0 0 1 0 -0.22)">
			<stop  offset="0" style="stop-color:#81BC7F"/>
			<stop  offset="1" style="stop-color:#BDDCB3"/>
		</linearGradient>
		<path fill="url(#SVGID_2_)" d="M-59.9,709.5c1.6-1.2,3.3-2.8,4.9-3.9c0.6-0.4,3.2-1,4.3-1.5c1.4-0.5,3.2-2.2,4.5-2.7
			c2.3-0.8,4.7-2.3,6.8-3.3c1.5-0.7,7,2.9,8.5,3.7c-1.1,1.1-2.3,2.3-3.4,3.4c0.6,0.5,8-1.8,9.7-1.3c2.4,0.6,17.9-3.8,18.8-3.5
			c0.1,0.2,1.5,1.1,1.5,1.3c-1.1,0.5-3.2,0.9-4.3,1.5c-5.1,2.8-9.6,4.2-14.5,7.2c-2,1.2-5.6,4.6-7.7,6.1c-0.9,0.7-3.7,3.3-4.7,3.6
			c-1.5,0.2-2.6,0.6-4,0.9c-1.1,1-2,1.6-3,2.6c-0.3,0.3-2.4,0.9-2.8,1.2c-0.6,0.4-2.8,1.7-3.4,1.9c-3.9,1.3-8.4,1.7-12.3,2.9
			c-0.8,0.2-4.3,2.7-5.3,3.3c-2-1.2-6.7-2.7-8.7-3.6c-0.7-0.3-3.9-1.2-5.4-1.9c-2.9-1.3-6.9-3.5-9.9-4.6c0.3-0.2,3.1-1.5,3.5-1.7
			c3.6-1.8,6.9-3.8,10.4-5.9c1.2-0.8,3.3-2.1,4.5-2.7c0.1-0.2,5.8-4.3,6.5-4.8l3,1L-59.9,709.5z"/>
		
			<linearGradient id="SVGID_3_" gradientUnits="userSpaceOnUse" x1="-163.3685" y1="700.3202" x2="-165.405" y2="746.9048" gradientTransform="matrix(1 0 0 1 0 -0.22)">
			<stop  offset="0" style="stop-color:#7BB978"/>
			<stop  offset="1" style="stop-color:#CEE6C4"/>
		</linearGradient>
		<path fill="url(#SVGID_3_)" d="M-145.1,691.3c0.8,0.5,1.1,1.2,1.9,1.7c0.6,0.4,1.1,0.3,1.7,0.6l4.3,1.3c3.4,3.4,3.9,5.3,7.1,8.7
			c0.8,0.8,3.9,2.3,5.2,3.2c1,0.5,9.3,2.8,10.1,3.1c3.3,1,6,1.6,9.3,2.5c1.1,0.3,6.7,1.3,7.8,2.1c2.7,1.5,3.6,1.9,5.9,4
			c0.6,0.6,3.3,3.1,3.8,3.4c2.9,1.1,6.1,2.9,9,4.2c1.5,0.7,4.6,1,5.3,1.3c2,1,7.2,3.8,9.1,5.1c-2,1.2-3.8,2.5-5.9,3.6
			c-1.6,0.9-6.3,1.9-7.7,3c-4.5-0.7-5.3-3-9.1-4.4c-0.4-0.1-1-0.9-1.3-1.2c-1.1,0.4-0.7,0.5-1.8,0.8l-2,1.6
			c-1.3-1.2-2.6-3.4-4.1-4.3c-0.7-0.4-1.4-0.4-1.6-0.5c-1-0.5-1.5-1.5-2.9-1.2c-0.5,0.1-1.3,0.6-1.5,0.4l-0.8-0.1
			c-1.5,0.1-4.5,0.7-5.4,2c-1.1,0.2-1.9,0.3-3,0.7c-1.2,0.4-0.8,0.5-1.6,1c-1.3,0-0.5,0.1-1.9,0.6c-0.3-0.2-1.3,0.5-1.5,0.2
			c-1,0.3-1.8,1.7-3.4,1.8c-0.3,0-2-0.2-2.3-0.2c-3.4,0.7-4.4,1.1-7.8,2.1c-0.3,0.1-3.3,1.1-3.5,1.3c-2.1,1.5-3.6,1-5.8,2.3
			c-0.8,0.2-2,0.4-2.8,0.1c-4.4-1.3-6.4-4.7-10.7-6.3c-1.3,0.5-2.6,0.8-4,0.6c-0.7,0.1-1.5,0.9-2.2-0.4c-0.9-0.8-0.8-0.8-1.8-1.4
			c-2.1,1.2-1.8,2.6-4.4,2.6c0,0-3.2,2.5-4.5,2.1c-0.3,0-1.5,0.2-1.7,0.4c-1.6,0.1-2.3,0.4-3.8,0.2c-2,1.2-4.2,2.6-6.2,3.7
			c-2,1.1-4.2,0.5-6.4,2.6c-0.7-0.9-5.1-6.1-6-7.4c-5.1-2.5-9.2-4-14.4-6.5c-2.6-1.3-5.7-3.1-8.4-4c-0.8-0.3-3.9-1.5-5-1.7l-9.5-1.3
			c-2.6-3.3-6.4-7.5-8.9-11c-2.8-1-4.7-2.2-7.5-3.1c-1.4-0.5-3.5-0.6-4.9-1.1c-3.4-3.5-7.5-7.7-10.9-11.2c2-1.1,8-5.1,10.2-5
			c0.8,0,3.5,2,4.3,2.4c1.5,1,4.1,1.9,5.5,2.8c2.6,1.8,5.5,4.5,8.9,4.9c0.5,0.1,2.6-0.4,3.3-0.5c2.4,1.9,9,7.1,9,7.1l13.5,6.8
			c0,0,4.2-1.3,8.6-3.1c3.8-1.5,8.3-2.4,10.1-2.6c2.9-0.2,4.4-0.4,6.7-1.9c2.9-2,5.6-3.9,8.6-5.7c1-0.6,3.6-0.9,4.8-1.2
			c3.3-0.8,8-0.7,11.3-1.6c1.2-0.3,4.9-4.1,6.3-4.9L-145.1,691.3z"/>
		
			<linearGradient id="SVGID_4_" gradientUnits="userSpaceOnUse" x1="-239.3938" y1="721.404" x2="-248.6365" y2="743.919" gradientTransform="matrix(1 0 0 1 0 -0.22)">
			<stop  offset="0" style="stop-color:#3B783C"/>
			<stop  offset="1" style="stop-color:#6DA358"/>
		</linearGradient>
		<path fill="url(#SVGID_4_)" d="M-294,680.8c3.4,2.1,8.2,5,11.1,7.7c2.8-1.2,5.4-2.5,8.5-2.3c2,1.1,10.3,9.8,12.2,12
			c3.4,3.5,6.8,7.2,10.2,10.7c1.4,0.5,2.9,0.8,4.3,1.3c2.8,0.9,5.5,2,8.3,3c2.4,3.4,5.8,8.2,8.4,11.5l9.2,1.3
			c1.1,0.2,4.4,0.6,5.2,0.8c2.7,0.9,5.7,3,8.3,4.3c5.2,2.5,10.5,4.7,15.6,7.3c0.9,1.3,4,6.1,4.7,7v0.1c0.4,0.7,1.6,1.6,1.4,2.4
			l0.6,0.3c0.3-0.1,0.4-0.2,0.8-0.2c0.3,0.3,0.4,0.4,0.7,0.7c0.8-0.3,0.2-0.7,0.9-0.5c0.5,0.5,1.7,2.1,2.1,2.2
			c0.4-0.1,0.5-0.2,0.9-0.2c0.2,0.2,0.3,0.3,0.3,0.7c-1.8,0.1-7.4,0.3-8.9,0.7c-1.5,0.4-6.1,3.4-7.8,4.1c-4,1.7-8.1,3.2-12.1,4.9
			c-0.7,0.3-3.6,1.6-4.2,1.7c-3.4,0.6-7.4,0.5-10.8,1c-7.2-0.2-14.8,0-22,0c-4.3-2.7-8.6-4.5-13.8-3.9c-3.3,0.4-3.9-0.2-6.7-1.6
			c-4.6-2.2-8.5-5.2-13.1-7.5c-2.8,0.5-5.6,1-8.4,1.6c-1.9-0.7-4-1.4-6-2.1v-11.9v-19v-2.6V698L-294,680.8L-294,680.8z"/>
		
			<linearGradient id="SVGID_5_" gradientUnits="userSpaceOnUse" x1="-250.7545" y1="718.7273" x2="-252.2688" y2="762.0204" gradientTransform="matrix(1 0 0 1 0 -0.22)">
			<stop  offset="0" style="stop-color:#20532A"/>
			<stop  offset="1" style="stop-color:#437E3F"/>
		</linearGradient>
		<path fill="url(#SVGID_5_)" d="M-294,716.3c0.5,0.4,0.9,0.8,1.5,0.8c1-0.2,2,0,3,0.1c1.5,1.7,2.9,3.2,4.5,4.8c0.1,0.6,0.2,1.1,0.6,1.4
			c1.1,0.4,2.3-0.7,3.3-1.2c1,0.2,2.1,0.3,3.1,0.6c1.5,1.5,3,3,4.4,4.5c0.7,0.7,2.4,2.6,3.2,3.1c3.5,2.4,6.3,1.9,9.1,5.3
			c3.1-1,6.3-1.9,9.4-2.9c2.7,2,7.1,5,9.7,6.8c1.5,1,10.5,3.6,12.5,4c1.1,1.2,5,5.6,6.1,6.2l0.4-0.3c1.1,0.4,1.8,2.7,3.5,1.5
			c0.7,0.3,0.9,1.4,1.7,1.9c2.9,2.1,6.2,3.9,8.9,6.3c0.1,0.1,0.2,1.1,0.2,1.3c-0.7,0.3-3.6,1.6-4.2,1.7c-3.4,0.6-7.4,0.5-10.8,1
			c-7.2-0.2-14.8,0-22,0c-4.3-2.7-8.6-4.5-13.8-3.9c-3.3,0.4-3.9-0.2-6.7-1.6c-4.6-2.2-8.5-5.2-13.1-7.5c-2.8,0.5-5.6,1-8.4,1.6
			c-1.9-0.7-4-1.4-6-2.1v-11.8v-19v-2.6H-294z"/>
		<path fill="#2A5F2F" d="M-294,737.9c2.1,1.2,2.6,1.2,4.9,1.9c0.4,0.1,2.1,1,2.5,1.3l0.7-1.4c0.9,0.3,1.6,0.6,2.6,0.9l0.5-0.8
			c1.1-0.2,0.4,1.3,1.9-0.6c1.5,2.1,2.4,0.3,3.7,2.3c0.7,1.1,1.2,2,2.2,2.9l0.3-1.9c0.7,0.8,1.4,1.7,2.2,2.5l0.7-1.7
			c0.8,1,1.6,2.2,3,2.4s1.7,0.6,2.7,1.5l0.6-2c0.6,0.8,1.3,2.1,2.2,2.4c0.4-0.1,0.4-0.2,0.7-0.5c0.4,0.1,0.4,0.1,0.6,0.4l0.4-0.3
			c1,0.4,1.2,2.2,2.6,2.7c0.3-0.2,0.3-0.3,0.4-0.6c1.1-0.1,2.1,1.7,2.8,1.9c0.5-0.4,0.3-0.3,0.8-0.3c0.3,0.2,0.5,0.5,0.7,0.7
			c1.1-1.4,1.2-1.6,1.6-3.3c0.4,0.5,0.7,1.1,1.3,1.3c0.3-0.1,0.5-0.1,0.8-0.2l0.4,0.4c0.5-0.4,0.2-0.8,0.6-1.2
			c0.4,0.3,0.4,0.4,0.7,0.8l0.2,0.1c0.2-0.2,0.3-0.4,0.4-0.6c1,0.3,1.3,2.3,2.1,2.1l0.3-0.4c0.7,0.1,1.2,1.1,1.6,1.8
			c0.3-0.7,0.6-1.3,0.9-2c0.8,1.3,1.5,3.3,3,3.7c0.1,0,0.6,0.6,0.9,0.7c0.3-0.6,0.1-1,0.5-1.2c0.9,0.8,1.6,2.1,2.3,2.5
			c0.8-0.2,0.8-1.3,1-2c0.5,0.6,1.3,1.9,2,2.1c2-1,2,0.9,3.3,1.6c0.3-0.1,0.6-0.3,0.8-0.2c1.8,1.1,3.8,2.4,5.6,3.5
			c0.1,0.6,0.4,1.9,0.2,2.3l-0.2,0.1c-7.2-0.2-14.8,0-22,0c-4.3-2.7-8.6-4.5-13.8-3.9c-3.3,0.4-3.9-0.2-6.7-1.6
			c-4.6-2.2-8.5-5.2-13.1-7.5c-2.8,0.5-5.6,1-8.4,1.6c-1.9-0.7-4-1.4-6-2.1V737.9L-294,737.9z"/>
		<path fill="#2A5F2F" d="M-294,716.3c0.5,0.4,0.9,0.8,1.5,0.8c-0.2,0.7,0,1.5-0.3,2c-0.5,0.2-0.7,0-1.2-0.2V716.3z"/>
		<path fill="#77AF6A" d="M-294,680.8c3.4,2.1,8.2,5,11.1,7.7c2.8-1.2,5.4-2.5,8.5-2.3c2,1.1,10.3,9.8,12.2,12
			c3.4,3.5,6.8,7.2,10.2,10.7c1.4,0.5,2.9,0.8,4.3,1.3c2.8,0.9,5.5,2,8.3,3c2.4,3.4,5.8,8.2,8.4,11.5l9.2,1.3
			c1.1,0.2,4.4,0.6,5.2,0.8c2.7,0.9,5.7,3,8.3,4.3c5.2,2.5,10.5,4.7,15.6,7.3c0.9,1.3,4,6.1,4.7,7v0.1c-0.6,0.6-1.5,1.8-2,2.1h-0.3
			c-0.3,0.4-0.3,0.5-0.7,0.7c-0.8-0.3-0.5-0.9-1.3-1.2l-0.4,0.5c-1,0.2-1.8-1.8-2.7-2.1c-0.2,0.3-0.2,0.3-0.4,0.5
			c-0.8-0.4-1.6-2.2-2.6-2.2l-0.5,0.7c-0.5,0-1-0.6-1.4-0.9c-0.6,0-0.1,0.3-0.7,0.6c-0.6-0.2-1.1-1.3-1.3-1.3
			c-1.5-0.5-1.9-0.1-3.1-1.2h-0.3c-0.1,0.3-0.2,0.5-0.4,0.7c-0.7-0.2-0.8-1-1.4-1.2l-0.4,0.4c-0.8-0.3-1.5-1.5-2.4-1.8
			c-0.4-0.1-1.8,0.4-2,0.2c-2-1.9-2-2.1-4.5-3.2l-2.3,1.2c-0.2-0.5-0.2-0.7-0.5-1.1c-1.1,0.3-1.4-0.7-2.6,0c-0.5-0.1-1-0.8-1.5-1.2
			c-1.6,0.3-1.9-0.3-3-1.4l-1.2,0.9c-0.5-0.7-0.8-1.3-1.3-1.9c-0.6-0.2-0.1,0.2-0.8,0.4c-0.3-0.2-0.3-0.4-0.5-0.7
			c-0.2,0.2-0.2,0.2-0.3,0.3c-0.7-0.3-0.6-1.3-1.5-1.5l-0.5,0.4c-0.6-0.1-0.6-0.7-1.2-0.8c-0.2,0.3-0.2,0.3-0.4,0.6
			c-0.8-0.8-2.8-2.2-3-3.1l-0.2-0.1c-0.2,0.3-0.2,0.4-0.5,0.6c-0.7-0.4-1.1-1.6-1.8-2c-1.4,1.1-1.6-0.4-3.8,1.4
			c-0.5-0.7-0.5-0.7-1.3-0.7c-0.8-0.5-1.2-2.1-2.1-2.2c-0.2,0.3-0.2,0.5-0.3,0.9c-0.8-0.1-1.3-2.2-2.4-2.7c-1.4,0.4-0.7-0.3-1.8-0.7
			c-0.2,0.2-0.2,0.2-0.4,0.4c-0.7-0.3-1.5-1.7-1.9-2.4l-1,1c-0.3-0.5-1-1.8-1.8-1.5c-0.5,0.2-0.9-0.6-1.2-1.1
			c-1-1.2-3.1-3.5-4.4-4.3c-0.3,0.1-0.4,0.2-0.6,0.4l-0.1,0.1c-0.8-0.3-0.7-1.5-2.4-1.1c-1.1,0.3-1.3-0.1-2.1-0.7
			c-1.4,0-0.9,0-1.6-1.1c-0.3,0-1.1,0.3-1,0.3c-0.6-0.3-1-1.1-1.6-1.6c-0.7-0.6-0.8-0.3-1.4,0.1c-0.8-0.6-1.3-2.3-2.1-2.5l-0.4,0.4
			l-0.3-0.1c-0.2-0.4-0.3-0.5-0.6-0.8l-0.4,0.2c-1.1-0.8-1.1-3.2-2-3.6c-0.2,0.2-0.4,0.5-0.6,0.7c-0.5-0.3-0.5-1.4-1.1-1.8
			c-0.3,0.2-0.4,0.4-0.6,0.7c-0.5,0-0.5-0.2-0.9-0.6c-0.4,0.1-0.3,0.1-0.6,0.6c-0.5,0-0.2-0.4-0.8-0.8l-0.3,0.5
			c-0.7-0.3-0.7-1.1-1.5-1.4c-0.2,0.2-0.2,0.3-0.5,0.4c-0.7-0.5-0.5-1.3-1.1-1.8c-0.1-0.1-0.9,0.3-1.1-0.1c-0.4-0.6-0.3-1-0.8-1.4
			c-0.8,0.8-0.4,0-1-0.2c-0.2,0.3-0.3,0.4-0.6,0.6c-0.7-0.3-1-1.5-1.7-1.9c-0.3,0.2-0.3,0.3-0.5,0.6l-0.1,0.1l-0.2-0.1
			c-0.3-0.5-0.6-1-0.8-1.6L-294,680.8z"/>
		<path fill="#7CBA78" d="M-282.9,688.5c2.8-1.2,5.4-2.5,8.5-2.3c2,1.1,10.3,9.8,12.2,12c3.4,3.5,6.8,7.2,10.2,10.7
			c-3.7-0.5-11-2.3-13.6-4.8c-2.8-2.7-5.9-7.8-8.7-10.5C-275.7,692.2-281,689.3-282.9,688.5z"/>
		<path fill="#77AF6A" d="M-145.5,689.2c0.8,0.5,1.5,1,2.2,1.5c0.6,0.4,1.2,0.7,1.8,1.1h4.9c3.4,3.4,5.9,7.1,9.1,10.4
			c0.8,0.8,5.3,2.5,6.6,3.4c0,0.5,0.3,0.8,0.7,1.2l-0.1,0.2c0.4,0.5,1.4,1.2,1.7,1.7c0.4,0.8,2.6,3,2.9,3.7l-0.2,0.1
			c-0.7-0.2-2.2-2.5-3.3-2.5c0.2,0.4,1.5,1.2,2.1,1.8c-1-0.3-0.7-0.1-1.6-0.2c-1.6-0.2-3.4,0.5-4.8,0c-1.3-0.4-3-0.8-4.4-0.9
			c-0.7-0.1-2.1-0.1-2.8-0.1c0.4,0.4,1.3,1.1,1.6,1.5c-1,0.5-3.4-1.3-4.3-1.5c-1.5-0.4-7.1,0-8.3,0.6c-0.4,2.3,7.3,4.8,9.1,7
			c-0.5-0.1-1.3-1.2-2.2-1.5c-1.5,0.5-2.9-0.7-4.3,0.2l-0.1,0.1c-0.2-0.2-17.4-7-19.1-7.7c0.6,2.8,1.6,3.8,3.2,6.1
			c-1.8-0.4-3.4,0.1-5.1-0.1c-4-0.4-7.8,0.1-11.7-0.8c-2.8-0.7-5.9-0.3-8.7,0c-1.2,0.2-2.6,0-3.8,0.2c-3.7,0.5-6.9,0.4-10.6-0.4
			c-1-0.2-2.4,0.8-3.4,0.7c-0.5,0-2.5-0.1-4.1,0.3l2.7-2c3.4-2.2,5.6-1.7,9.5-2c2.9-0.2,3.5-0.9,5.8-2.5c2.9-2,5.7-4.1,8.7-5.9
			c1-0.6,2.9-0.8,4-1.2c3.3-0.8,7.2-1.5,10.4-2.4c1.2-0.3,5.2-3,6.6-3.9L-145.5,689.2z"/>
		<path fill="#7CBA78" d="M-132.4,709.3c-1.8-1.1-4.5-2.6-6-3.9c-0.9-0.8-2.4-2.9-3.3-3.9c-0.6-0.7-2-2.5-2.3-3.3
			c-0.8-2.1-1.4-4.5-2.2-6.7c-0.2-0.6-0.3-1,0-1.5c1.2-1,1.6,0.7,2.9,0.6c0.6,0.4,1.2,0.7,1.8,1.1h4.9c3.4,3.4,5.9,7.1,9.1,10.4
			c0.8,0.8,5.3,2.5,6.6,3.4c0,0.5,0.3,0.8,0.7,1.2l-0.1,0.2c0.4,0.5,1.4,1.2,1.7,1.7c0.4,0.8,2.6,3,2.9,3.7l-0.2,0.1
			c-0.7-0.2-2.2-2.5-3.3-2.5c0.2,0.4,1.5,1.2,2.1,1.8c-1-0.3-0.7-0.1-1.6-0.2c-1.6-0.2-3.4,0.5-4.8,0c-1.3-0.4-3-0.8-4.4-0.9
			c-0.7-0.1-2.1-0.1-2.8-0.1C-131.2,710.4-131.8,709.4-132.4,709.3L-132.4,709.3z"/>
		<path fill="#7CBA78" d="M-147.7,706.6c1.2,0,3.3-0.1,4.4,0.1c1.3,0.2,3,1.6,4.4,2.1c1.3,0.5,3.2,0.5,4.4,1c1.7,0.6,3.3,1.5,5.1,2.2
			c-0.7-0.6-2.5-1.9-3-2.5c0.7,0.1,1.2,1,1.7,1.1c0.4,0.4,1.3,1.1,1.6,1.5c-1,0.5-3.4-1.3-4.3-1.5c-1.5-0.4-7.1,0-8.3,0.6
			c-0.4,2.3,7.3,4.8,9.1,7c-0.5-0.1-1.3-1.2-2.2-1.5c-1.6-0.6-4.7-2.4-6.2-3.3C-143.9,707.9-143.7,709.9-147.7,706.6z"/>
		
			<linearGradient id="SVGID_6_" gradientUnits="userSpaceOnUse" x1="-106.8811" y1="707.6108" x2="-108.51" y2="723.3149" gradientTransform="matrix(1 0 0 1 0 -0.22)">
			<stop  offset="0" style="stop-color:#69AB73"/>
			<stop  offset="1" style="stop-color:#98C99A"/>
		</linearGradient>
		<path fill="url(#SVGID_6_)" d="M-121,705.6c1,0.5,4,2.1,4.8,2.3c3.3,1,7.7,1.5,11,2.4c1.1,0.3,6,3.3,7.2,4.1l-0.4,0.2
			c0.1,1.3,3.5,6.4,4.3,7.5c-1.5-0.6-2.8-1.7-4.2-2.6c-1.4-0.8-2.9-1.3-4.5-1.8c1.5,2.4,3.3,4.8,4.7,7c-3.1-2.4-6.5-4.4-9.6-6.7
			c-1.2-0.9-3.1-1.8-3.9-3.1c-0.7-0.5-1.4-1.9-2.1-2.7c-1-1.1-1.3,0.2-2.1,0.1c-0.3-0.6-2.5-2.9-2.9-3.7c-0.3-0.5-1.3-1.2-1.7-1.7
			l0.1-0.2C-120.6,706.4-120.9,706.1-121,705.6z"/>
		<path fill="#7CBA78" d="M-115.7,712.4c-0.3-0.6-2.5-2.9-2.9-3.7c-0.3-0.5-1.3-1.2-1.7-1.7l0.1-0.2c2.6,2.6,7.5,4.7,8.7,8.1
			c-0.7-0.5-1.4-1.9-2.1-2.7C-114.6,711.1-114.9,712.4-115.7,712.4z"/>
		<path fill="#7CBA78" d="M-158.6,709c1.8,0.7,18.9,7.5,19.1,7.7c0.7,0.4,2.2,2,2.8,2.6c-0.2,0-2-1.7-2.4-2c-0.4-0.3-0.8-0.6-1.5-0.8
			c-5.4-1.9-10.6-4.3-15.9-6.2c-0.2-0.1-1,0.3-1.3,0.5c0.1,0.3,3.5,5.6,4,6.4l-0.1,0.1c-0.4-0.7-1-1.5-1.5-2.2
			C-157,712.8-158,711.9-158.6,709L-158.6,709z"/>
		<path fill="#B1D9F5" d="M-294,641.8H6v9c-0.7-0.1-1.8,0-2.5,0.1l-0.2-0.2c-1.1,0.3-1.9,0.9-2.6,1.2c0,0-3,0.5-3.1,0.5
			c-2.1,0.1-4.5-0.7-6.6,0.2c-0.1,0.1-0.2,0-0.3,0l-0.1-0.4c-3-0.4-7.8-0.4-10.8-0.1c-3.1,0.3-6,0.6-9.2,0.6c-1.2,0-3,0.6-4.3,0.5
			c-1.7,0-3.5-0.2-5.2-0.2c-3.1,0.1-6.1,0.1-9.2,0.1c-3.9-0.2-7.9-0.6-11.8-0.8c-1.2-0.1-3.5,0.2-4.7,0.3c-6.1,0.5-12,0.6-18.1-0.2
			c-1.8-0.2-4.9,0.7-6.9,0.4c-2.3-0.2-4.8-0.5-7.1-0.8c-0.3,0-2.9,0.3-3.3,0.4c-1.7,0.2-3.4,0.3-5.2,0.3c-1.6,0-3.5-0.2-5.1-0.3
			c-5.9-0.4-11.1,0.4-17-0.1c-1.9-0.1-3.9-0.2-5.8-0.2c-0.8,0-2.4-0.1-3.1,0.1c-2.7,0.5-4.9,0.6-7.6,0.7c-4.4,0-8.9-0.2-13.3-0.5
			c-1.3-0.1-2.6-0.3-3.9-0.5c-0.8-0.1-2,0.4-2.7,0.4c-1.4,0-2.7-0.1-4.1-0.1c-1.3,0-3,0.4-4.1,0.4c-1.6,0-3.6,0.4-5,0.5
			c-2.4,0.2-5.9-0.5-8.5-0.1c-0.2,0-0.9,0.8-0.9,0.8c-1.1,0-1.3-0.4-2.3,0h-1.8c-1.9-0.5-4.3,0.9-5.6,0.8c-1.4-0.3-4.7,0.2-5.9-0.2
			c-4.6-1.4-9.1-2.2-13.9-1.5c-1.3,0.2-3.2,0.7-4.4,0.4c-0.5-0.1-1.5-0.6-2.1-0.7c-5.3,0.2-10.5,0-15.8-0.1c-1.4,0-2.9,0.1-4.3,0
			c-1.3-0.1-2.8-1.1-4.3-0.9c-1.4,0.1-1.3-0.4-2.4,0.6c-0.5-0.1-1-0.2-1.5-0.2l-0.2,0.2c-1.1-0.1-2.2-0.3-3.2-0.4
			c-2.4-2.8-5.6-3.3-9.1-3.3c-1.8-2.2-3.4-2.4-6.2-2.8c-2.9-0.3-4.9,0.1-7.4,1.6c-0.7-0.3-1.7-0.7-2.4-0.7c-2.4,0-7.1,0.6-9.2,1.8
			c-3.3,1.7-2.2,1.3-5.8,1.7L-294,641.8z"/>
		<path fill="#FDFEFF" d="M-252.8,661.8c1.4-1.1,2.1-1.1,3.7-1.6c5-1.4,9.9-2.3,15.1-3.1c2.2-0.3,4.7-1.6,6.9-2.1
			c1.7-0.4,3.3-0.4,5-0.5c1-0.1,2.6-0.6,3.6-0.8c2-0.4,4-0.6,6-0.7c2.5,0,4.9,0.2,7.3,0.8c2.1,0.5,3.7,1.2,6,1
			c0.9-0.1,2.3,0.2,3.2,0c1.9-0.4,3.8-0.7,5.7-1h1.8c4.8,0.6,6.8,2.4,11.4,3.3c4.7,0.9,11.5-0.7,15.1,2.3c3.3-0.1,6.8,0.9,10.2,0.5
			c0.9-0.1,2.6-0.1,3.3,0.5v0.2c-1.6,1.2-6.4,1-8.4,1.2c-0.7,0.1-1.5,0.6-2.1,0.7c-1.5,0.2-2.8-0.3-4.1,0.7c-0.9,0.7-1.9,1.3-3,1.8
			c1.2,0.2,2.3,0.2,3.3,0.3c3.1,0.2,5.9-0.9,8.4,1.3c1.4,0.5,4.7,0.1,6.2-0.1c3.9-0.5,5.3,1.8,8.7,2.2c0.1,0,2.2-0.7,2.5-0.8
			c0.9,0.2,1.7,0.7,2.6,0.9c0.9,0.2,4.3,0.5,4.7,1.2c-1.4,0.9-9.9,0.9-11.9,0.9c-1.3,0-2.9,0.3-4.2,0.3c-14.5-0.8-29.1-1.5-43.6-0.9
			c-4.1-0.1-8.3-0.1-12.4-0.3c-5.3-0.3-10.2,0.6-15.5,0.8c-3.6,0-7.3-1.3-10.8-1.3c-7.3,0.1-13.5,2.9-20.7,0.7
			c-1.9-0.6-7.2,0.3-9.5-0.4c-1.8-0.6-5.2-1.5-6.7-3c-3.1-4.1,6.9-4.6,9.2-5.2C-255.3,661.5-253.3,661.7-252.8,661.8L-252.8,661.8z"
			/>
		<path fill="#A6CFAC" d="M-59.9,709.5c1.6-1.2,3.3-2.8,4.9-3.9c0.6-0.4,3.2-1,4.3-1.5c1.4-0.5,3.2-2.2,4.5-2.7
			c2.3-0.8,4.7-2.3,6.8-3.3c1.5-0.7,7.8,3.3,9.3,4.1c-1.1,1.1-1.7,2.7-4.2,3.1c-0.7,0.7-2.8,2.9-3.2,3.2c-3.1,2.3-6.9,4.2-10.2,6.4
			c-1-0.6-2.3-1.3-3.3-1.9c-0.7,0-1.8,0.1-2.4,0.5c0,0.4,0.2,0.6,0.4,0.9c-1-0.4-2.1-3-2.5-4c-1.7,0.1-2.3-0.2-3.8-0.7L-59.9,709.5z"
			/>
		<path fill="#7CBA78" d="M-55.3,710.5c1.4,0.7,3.1,1.8,4.4,2.6c-0.7,0-1.8,0.1-2.4,0.5c0,0.4,0.2,0.6,0.4,0.9
			C-53.7,714-54.9,711.5-55.3,710.5L-55.3,710.5z"/>
		<path fill="#77AF6A" d="M-65.6,707.7l3,1l2.6,0.9l0.9,0.3c0.2,0.3,1.2,1.2,1.2,1.3c-0.7,0-0.2-0.4-0.7-0.1c0.3,0.6,1,1,1.5,1.5
			c-0.5,0.4-0.7,0.4-0.8,0.9c0.4,0.5,0.7,0.7,0.9,1.3l0.1,0.2c-1,0.2-5.3-2.3-6.6-2.6c-1.2-0.3-1.7-0.3-3-0.5
			c0.4,0.7,1.1,1.7,1.6,2.4c-2.7-0.6-6.7,0.3-8.5-0.7c0.3-0.7,0.7-0.2,1.2-1.1C-71.9,712.3-66.2,708.2-65.6,707.7z"/>
		<path fill="#7CBA78" d="M-62.6,708.6l2.6,0.9l0.9,0.3c0.2,0.3,1.2,1.2,1.2,1.3c-0.7,0-0.2-0.4-0.7-0.1c0.3,0.6,1,1,1.5,1.5
			c-0.5,0.4-0.7,0.4-0.8,0.9c0.4,0.5,0.7,0.7,0.9,1.3c-0.7-0.5-1.8-2-2.5-2.7C-60.3,711.2-62.2,709.8-62.6,708.6z"/>
		<path fill="#77AF6A" d="M-59.1,709.8c1.6,0.5,2.2,0.7,3.8,0.7c0.4,1,1.5,3.5,2.5,4l1,1.4c-2.1-1.6-4.1-3.2-6.1-4.8
			C-57.9,711.1-58.9,710.1-59.1,709.8z"/>
		<path fill="#7CBA78" d="M6,685.3v17.4c-2.6-0.6-9.4-2.4-11.7-1.8c0-0.2,0-0.2-0.1-0.3c-0.8-0.3-16.4,4.1-18.8,3.5
			c-1.7-0.5-9,1.8-9.7,1.3c1.1-1.2,2.3-2.3,3.4-3.4c1.8-1.8,3.3-3.4,4.9-5.4c2.4-3.1,5.4-5.6,8.7-7.7c2.6,0.8,4,1.5,6.5,2.7
			c4.7-1.3,8.4-1.4,12.5-4.2C2.6,686.6,4.9,685.7,6,685.3z"/>
		<path fill="#FDFEFF" d="M-276.5,647.4c2.5-1.5,4.4-1.9,7.4-1.6c2.8,0.3,4.4,0.6,6.2,2.8c3.5,0,6.7,0.5,9.1,3.3
			c1.1,0.1,2.2,0.2,3.2,0.4c1.8,0.8,5.2,0.2,6.9,1.2c-0.8,0.4-7.7,0.4-9.4,0.6c-5.6,0.8-10.6,3-16.4,2.8c-3.4-0.1-6.7,1.3-10.2,1.1
			c-3-0.2-5.7-0.6-8.7-1.1c-1.3-0.2-4.1,0-5.7,0v-6.6c3.7-0.4,2.6,0,5.8-1.7c2.1-1.1,6.8-1.8,9.2-1.8
			C-278.2,646.7-277.2,647.1-276.5,647.4z"/>
		<path fill="#FDFEFF" d="M3.5,650.9c0.7-0.1,1.8-0.2,2.5-0.1v9.5c-2.1-0.1-3.9-0.1-6,0.3c-2.2,0.4-4.4,0.6-6.6,0.7
			c-3,0.2-5.8-0.6-8.7-1c-3-0.1-6.1,0.3-9.1,0.3c-1.9-0.1-4.1-0.5-5.9-0.9c-2.1-0.5-5.8-0.1-7.5-0.9v-0.2c0.9-0.6,3.7-0.7,4.9-0.8
			c4.2-3.3,14.7-2.1,19.9-1.9c-0.7-0.2-1.8-0.4-2.1-1.1c1.3-2.6,10.1-2.5,12.7-2.2C-0.8,652.8,2,651.6,3.5,650.9z"/>
		<path fill="#FDFEFF" d="M-294,669.7c1.6,0.3,3.8-0.7,5.7-0.5c2,0.2,3,1.6,4.6,2c2,0.5,4.8,0.8,6.8,1c1,0.1,3.1-1.2,4.1-0.1v0.6
			c1.5,0.6,6.2,0.5,8,0.6c1.3,0.1,2.7-0.2,3.9,0.7l0.1,0.3c-1,2.3-8,1.4-10,1.5c-1.7,0.1-3.4,0.6-5,0.8c0.5,0.1,1,0.2,1.3,0.5
			c-0.9,1.7-16.9,0.6-19.5,0.6V669.7L-294,669.7z"/>
		<path fill="#FDFEFF" d="M6,669.4v6.8c-4.7,0-9.4-0.1-14.1-0.2c-3.4-0.1-6.7,0-10.2-0.2c1.1-0.4,3.2-0.9,4.4-1.1
			c1.4-2.3,3.8-1.8,6.2-1.6c2.3-3,5.9-3.4,9.3-2.6C3.5,669.7,4,669.4,6,669.4z"/>
		<path fill="#454445" d="M-37.9,670.2c2.1,0.2,2.9,0.8,3.9,2.6c1.1-0.3,4.2-1,4.9,0.3c-2.6-0.6-4.3,0.8-5.8,0.5
			c0-0.1-0.1-0.3-0.1-0.4C-35.7,671.4-36.3,671-37.9,670.2z"/>
		<path fill="#454445" d="M-28.5,676.5c1.6-0.2,2.1,0,3.4,0.8c0.9-0.6,2-1,3.1-0.7l-0.4,0.1c-1.4,0.4-1.8,0.7-2.8,1.7
			C-26.3,677.2-26.8,676.8-28.5,676.5L-28.5,676.5z"/>
		
			<linearGradient id="SVGID_7_" gradientUnits="userSpaceOnUse" x1="-31.5606" y1="729.5363" x2="-34.8649" y2="755.5242" gradientTransform="matrix(1 0 0 1 0 -0.22)">
			<stop  offset="0" style="stop-color:#2A6031"/>
			<stop  offset="1" style="stop-color:#46843E"/>
		</linearGradient>
		<path fill="url(#SVGID_7_)" d="M6,717.4v7.1v16.9c-2.8,0.9-5.8,1.9-8.7,2.7c-2.9,0.5-5.2,1.5-7.9,2.4c-2,0.7-5.5,0-7.6,0.7
			c-5.2,1.9-10.2,4.3-15.4,6.1c-1.9,0.6-5.4-0.6-7.4-0.3c-0.8,0.1-3.2,1-4.1,1.3c-2.4-1.3-4.9-2.6-7.3-4c-1.1,0-3.8-0.1-4.6,0
			c-1.1-0.6-2.4-1.2-3.4-1.8c-1.3-0.8-2.6-1.8-3.9-2.5c-2.7,0.1-6.1,0.5-8.4-0.6c0.5-0.3,3.8-0.9,4.6-1.1c0.9,0.5,1,0.5,1.9,0.3
			C-67.9,743.5,6,717.4,6,717.4z"/>
		
			<linearGradient id="SVGID_8_" gradientUnits="userSpaceOnUse" x1="-52.1829" y1="718.9373" x2="-53.6258" y2="745.1272" gradientTransform="matrix(1 0 0 1 0 -0.22)">
			<stop  offset="0" style="stop-color:#69A468"/>
			<stop  offset="1" style="stop-color:#A7CFA1"/>
		</linearGradient>
		<path fill="url(#SVGID_8_)" d="M-41.1,719.9c1.4-0.2,3-0.4,4.5-0.5c1.8,0.9,4.2,4.8,5.9,6c1.3,0.9,3.1,0.1,4.2,1.4
			c-0.8,0.4-3.3,3.6-4.4,4.1c-2.3,1-4.7,2-7,3c-0.5,0.2-0.8,1.5-1.7,1.2c-0.1,0-0.2-0.1-0.3-0.1c-1.7,0.8-2.9,1.1-4.4,2.3
			c-1.1,0.9-2.4,1.4-3.7,1.6c-0.4,0.4-0.9,0.9-1.2,1.4c-0.7,0.2-3.7,1.1-4.1,1.4c-1.1-0.2-2.5,0-3.4,0.4c-1.8,0.9-7.8,1.8-9.3,2.7
			c-1.5-1.1-6.5-1.6-8.3-2.8c-1.4-0.9-3.5-2.8-5.1-3.5c1.4-1.1,5.3-2.4,7-3.2c2.1-1.1,4.2-2.4,6.2-3.6c1-0.5,3.9-2.5,4.8-2.7
			c4-1.1,8.6-1.6,12.5-2.9c0.6-0.2,1.9-1.6,2.5-2c0.4-0.3,2.2-0.9,2.5-1.2C-43.2,721.9-42.2,720.9-41.1,719.9L-41.1,719.9z"/>
		
			<linearGradient id="SVGID_9_" gradientUnits="userSpaceOnUse" x1="-16.9217" y1="703.1375" x2="-13.2796" y2="724.7036" gradientTransform="matrix(1 0 0 1 0 -0.22)">
			<stop  offset="0" style="stop-color:#60A05B"/>
			<stop  offset="1" style="stop-color:#88B875"/>
		</linearGradient>
		<path fill="url(#SVGID_9_)" d="M-5.7,700.9c2.3-0.6,9.1,1.2,11.7,1.8v11.6c-2.3,0.7-4.2,1.4-6.4,2.4c-0.5,0.2-1.9-0.1-2.4,0.4
			c-1.2,0.8-2.5,1.2-3.8,1.8l-0.9-0.8c-1.8,0.7-3.6,0.9-5.2,1.6c-3.1,1.2-6.3,2.3-9.4,3.4c-0.8,0.6-3.8,4.1-4.8,3.9
			c-1-1.3-2.7-0.5-4-1.4c-1.7-1.2-4.4-5.3-6.2-6.2c1-0.3,3.8-2.8,4.8-3.5c2.1-1.5,4.5-5.9,6.5-7.1c4.9-3,11.5-3.4,16.6-6.2
			C-8.3,702-6.9,701.4-5.7,700.9L-5.7,700.9z"/>
		
			<linearGradient id="SVGID_10_" gradientUnits="userSpaceOnUse" x1="-25.1843" y1="720.2223" x2="-21.5632" y2="741.1175" gradientTransform="matrix(1 0 0 1 0 -0.22)">
			<stop  offset="0" style="stop-color:#417F43"/>
			<stop  offset="1" style="stop-color:#6FA55F"/>
		</linearGradient>
		<path fill="url(#SVGID_10_)" d="M6,714.3v10.2c-1,0.6-1,0.3-1.9-0.4c-0.5,0.6-0.8,0.9-1.6,1.1c-2.5,0.7-2.6,2.2-4,3.6
			c-0.3-0.5-0.5-1-0.7-1.5c-0.6,0.8-1.3,1.8-2,2.5c-0.3-0.5-0.6-1.1-0.9-1.5c-1.5,2.1-1.8,1.2-3.2,3.1c-0.4-0.4-0.6-0.6-0.9-1
			c-0.4,0.5-2.3,2.2-2.8,2.3c-0.2-0.3-0.3-0.4-0.5-0.8c-1.3,0.1-2.7,3.3-4,2.6c-0.8,0.3-1.5,1.6-2.2,1.8c-0.4-0.3-0.5-0.5-0.8-0.9
			c-0.4,0.4-0.9,1-1.5,1.1c-0.9-0.3-1.1-0.9-1.5-1.6c-0.2,0.5-0.9,2-1.3,2.2l-0.4-0.2c-0.7,0.4-0.4,1.1-1.1,1.7c-2.5-1-1.4,2-4,0.3
			c-0.2,0.3-0.7,1-1.1,1.1c-2.5,1.1-5.1,3.6-7.6,4.4c-0.4-0.2-0.8-0.5-1-0.6c-0.9,0-1.9-0.2-2.8-0.4c-1.1-0.5-9.9-1.5-11.8-1.7
			c0.4-0.4,3.4-1.2,4.1-1.4c0.4-0.5,0.8-1,1.2-1.4c1.4-0.1,2.7-0.7,3.7-1.6c1.4-1.2,2.6-1.5,4.4-2.3c0.1,0,0.2,0.1,0.3,0.1
			c0.9,0.3,1.2-1,1.7-1.2c2.3-1,4.7-2,7-3c1.1-0.5,3.6-3.7,4.4-4.1c1,0.2,3.5-3.3,4.4-3.6c3.1-1.1,6.3-2.2,9.4-3.4
			c1.6-0.6,3.5-1.2,5.3-1.9l0.9,0.8c1.3-0.6,2.4-0.9,3.7-1.7c1.1-0.9,2.2-0.1,2.7-0.4C1.9,715.5,3.7,715,6,714.3z"/>
		
			<linearGradient id="SVGID_11_" gradientUnits="userSpaceOnUse" x1="-103.6432" y1="729.3848" x2="-104.2042" y2="751.4373" gradientTransform="matrix(1 0 0 1 0 -0.22)">
			<stop  offset="0" style="stop-color:#66A569"/>
			<stop  offset="1" style="stop-color:#A4CD9E"/>
		</linearGradient>
		<path fill="url(#SVGID_11_)" d="M-109.1,731.6c0.8-1.4,4.1-2.4,5.6-2.5c0,0,0.5,0.3,0.4,0.3c0.2,0.3,1.4-0.2,1.9-0.3c1.4-0.3,2,0.8,3,1.3
			c0.2,0.1,1-0.1,1.7,0.3c1.5,0.9,2.8,2.1,4,3.3l1-1c1.1-0.2,1.4-0.3,2.5-0.7c0.3,0.3,0.3,0.4,0.7,0.6c3.8,1.5,5.3,4.2,9.8,4.9
			c1.7,0.7,2.9,2.5,4.3,3.4c1.8,1.2,6.4,2.5,7.9,3.5c-0.9,0.3-1,0.2-1.9-0.3c-0.7,0.2-3.7,0.8-4.3,1.1c-4-1.8-7.5-0.1-11.1,1.5
			c-2.6,1.2-5.1,2.2-7.7,3.3c-1.6-0.7-3.2-1.3-4.9-1.9c-4,0.9-9.8,1.9-13.6,2.9c-0.1-0.3-1.3-0.2-1.6-0.3
			c-5.9-2.2-10.7-5.3-16.4-7.9c-2.2,0.5-2.9,0.8-4.9,1.9c-1.9-1.5-5.7-0.2-7.6-1.9c-0.4-0.3-1-1.1-1.4-1.4l0.6-0.8
			c2.2-1.4,4.6-1.7,6.6-3.1c0.3-0.2,1.1-0.7,1.4-0.8c3.4-1,7-1.3,10.4-2c0.3-0.1,1.3,0.3,1.7,0.4c1.6-0.2,3.6-2,4.6-2.3
			c0.2,0.2,0.2,0.3,0.5,0.4c1.4-0.5,0.9-0.3,2.2-0.3c0.8-0.5,0.5-0.6,1.6-1C-111,732-110.2,731.7-109.1,731.6z"/>
		
			<linearGradient id="SVGID_12_" gradientUnits="userSpaceOnUse" x1="-148.4364" y1="734.8854" x2="-149.0848" y2="754.2212" gradientTransform="matrix(1 0 0 1 0 -0.22)">
			<stop  offset="0" style="stop-color:#3F7A3F"/>
			<stop  offset="1" style="stop-color:#659F5C"/>
		</linearGradient>
		<path fill="url(#SVGID_12_)" d="M-176,739.1c1.5,0.2,2.9-0.1,4.5-0.2c0.3-0.2,0.9-0.9,1.2-0.9c1.3,0.4,3.8-1.9,3.9-1.9c2.6,0,2.9-1.1,5-2.3
			c1,0.6,1.3,0.8,2.1,1.6c0.7,0,1.2,0,1.9,0.1c1.4,0.2,2.8-0.5,4-1c4.3,1.6,6.4,5.4,10.8,6.7c0.8,0.2,0.7,0.2,1.5,0l0.1,0.1
			c0.5,0.2,1,0.6,1.4,0.9c2,1.7,5.1,0.9,7,2.3c2-1.1,2.6-1.2,4.8-1.6c5.7,2.6,11.3,5.7,17.2,7.9c0.3,0.1,0.8,0.5,0.9,0.8
			c-2.1,0.6-4.7,2-6.9,2.5c-1.7,0.4-4.6-0.5-6.3-0.2c-0.9,0.2-3,1-4.1,1.4c-2.6-1.2-5.2-2.5-7.8-3.7c-1.4-0.6-3.2-0.7-4.5-1.5
			s-2.5-1.9-3.7-2.9c-2.4,0-5.3,0.1-7.6-0.2c-2.1-0.3-3.7-2-6-1.8c-1.7,0.1-3.3-0.1-4.9,0.6c-3.4,1-7,3-10.4,3.8
			c-2.8,0.7-5.5,0.6-8.5,1.3c0-0.3-0.1-0.5-0.3-0.7c-0.4,0-0.6,0.1-0.9,0.2c-0.4-0.2-1.6-1.7-2.1-2.2c-0.7-0.2-0.1,0.2-0.9,0.5
			c-0.3-0.2-0.4-0.4-0.7-0.7c-0.4,0.1-0.4,0.1-0.8,0.2l-0.6-0.3c0.2-0.7-1-1.6-1.4-2.4v-0.1c2.2-2.1,3.6-1.4,5.5-2.5
			C-180.4,741.7-178,740.2-176,739.1L-176,739.1z"/>
	</g>
</g>
</svg>