<?xml version="1.0" encoding="utf-8"?>
<!-- Generator: Adobe Illustrator 19.0.0, SVG Export Plug-In . SVG Version: 6.00 Build 0)  -->
<svg version="1.1" id="svg" xmlns="http://www.w3.org/2000/svg" xmlns:xlink="http://www.w3.org/1999/xlink" x="0px" y="0px"
	 viewBox="-147 320.9 300 200" style="enable-background:new -147 320.9 300 200;" xml:space="preserve">
<style type="text/css">
	.st0{fill:#FDFEFF;}
	.st1{fill:url(#SVGID_1_);}
	.st2{fill:#D2E6DB;}
	.st3{fill:url(#SVGID_2_);}
	.st4{fill:url(#SVGID_3_);}
	.st5{fill:url(#SVGID_4_);}
	.st6{fill:url(#SVGID_5_);}
	.st7{fill:#2A5F2F;}
	.st8{fill:#77AF6A;}
	.st9{fill:#7CBA78;}
	.st10{fill:#699F55;}
	.st11{fill:url(#SVGID_6_);}
	.st12{fill:#B1D9F5;}
	.st13{fill:#A6CFAC;}
	.st14{fill:#454445;}
	.st15{fill:url(#SVGID_7_);}
	.st16{fill:url(#SVGID_8_);}
	.st17{fill:url(#SVGID_9_);}
	.st18{fill:url(#SVGID_10_);}
	.st19{fill:url(#SVGID_11_);}
	.st20{fill:url(#SVGID_12_);}
</style>
<g>
	<g>
		<path class="st0" d="M-147,320.9h300v9v9.5v9.1v6.8v9.1v17.4v11.6v10.2v16.9v100.4h-300v-92.1V417V398v-2.6v-18.3v-17.2v-3v-8.1
			v-12.9v-6.6V320.9z"/>
		
			<linearGradient id="SVGID_1_" gradientUnits="userSpaceOnUse" x1="3.0558" y1="511.0187" x2="2.8771" y2="444.7292" gradientTransform="matrix(1 0 0 -1 0 841.67)">
			<stop  offset="0" style="stop-color:#BEE0F7"/>
			<stop  offset="1" style="stop-color:#FFFFFF"/>
		</linearGradient>
		<path class="st1" d="M-147,320.9h300v9v9.5v9.1v6.8v9.1v17.4c-2.6-0.6-9.4-2.4-11.7-1.8c-1.1,0.5-2.6,1.1-3.6,1.7
			c-5.1,2.8-11.7,3.2-16.6,6.2c-2,1.2-4.4,5.6-6.5,7.1c-0.9,0.7-3.2,3.1-4.2,3.4c-1.5,0.2-3,0.3-4.5,0.5c-1.1,1-2.1,2-3.1,2.9
			c-0.3,0.3-2.1,0.9-2.5,1.2c-0.6,0.4-1.9,1.8-2.5,2c-3.9,1.3-8.5,1.8-12.5,2.9c-0.8,0.2-3.8,2.2-4.8,2.7c-2,1.2-4.1,2.5-6.2,3.6
			c-1.6,0.9-4.3,1.4-5.7,2.5c-4.5-0.7-6-3.4-9.8-4.9c-0.4-0.1-0.4-0.3-0.7-0.6c-1.1,0.4-1.4,0.5-2.5,0.7l-1,1
			c-1.3-1.2-2.6-2.4-4-3.3c-0.7-0.4-1.5-0.2-1.7-0.3c-1-0.5-1.6-1.6-3-1.3c-0.5,0.1-1.7,0.6-1.9,0.3c0,0-0.4-0.3-0.4-0.3
			c-1.5,0.1-4.8,1.1-5.6,2.5c-1.1,0.2-1.9,0.5-2.9,0.8c-1.2,0.4-0.6,0.9-1.4,1.4c-1.3,0-1-0.5-2.4,0c-0.3-0.2-0.3-0.2-0.5-0.4
			c-1,0.3-3,2.2-4.6,2.3c-0.3,0-1.4-0.4-1.7-0.4c-3.4,0.7-7,1-10.4,2c-0.3,0.1-1.1,0.6-1.4,0.8c-2.1,1.5-4.4,1.8-6.6,3.1
			c-0.8,0.2-0.7,0.3-1.5,0c-4.4-1.3-6.5-5.2-10.8-6.7c-1.3,0.5-2.6,1.2-4,1c-0.7-0.1-1.2-0.1-1.9-0.1c-0.9-0.8-1.1-1-2.1-1.6
			c-2.1,1.2-2.5,2.2-5,2.3c0,0-2.6,2.3-3.9,1.9c-0.3,0-1,0.7-1.2,0.9c-1.6,0.1-3,0.3-4.5,0.2c-2,1.2-4.4,2.6-6.4,3.7
			c-2,1.1-3.3,0.4-5.5,2.5l0,0.1c0.4,0.7,1.6,1.6,1.4,2.4l0.6,0.3c0.3-0.1,0.4-0.2,0.8-0.2c0.3,0.3,0.4,0.4,0.7,0.7
			c0.8-0.3,0.2-0.7,0.9-0.5c0.5,0.5,1.7,2.1,2.1,2.2c0.4-0.1,0.5-0.2,0.9-0.2c0.2,0.2,0.3,0.3,0.3,0.7c-1.8,0.1-7.4,0.3-8.9,0.7
			c-1.5,0.4-6.1,3.4-7.8,4.1c-4,1.7-8.1,3.2-12.1,4.9c-0.7,0.3-3.6,1.6-4.2,1.7c-3.4,0.6-7.4,0.5-10.8,1c-7.2-0.2-14.8,0-22,0
			c-4.3-2.7-8.6-4.5-13.8-3.9c-3.3,0.4-3.9-0.2-6.7-1.6c-4.6-2.2-8.5-5.2-13.1-7.5c-2.8,0.5-5.6,1-8.4,1.6c-1.9-0.7-4-1.4-6-2.1V417
			V398v-2.6v-18.3v-17.2v-3v-8.1v-12.9v-6.6L-147,320.9z"/>
		<path class="st2" d="M65,392.3c1.5,0.5,4.5,1.6,6.1,2.2c-3.4,2-6.5,4.7-10.1,6.5c-0.4,0.2-2,1-2.3,1.2c-0.6-0.3-4.3-3.5-4.9-4.1
			c2.5-1.4,5.8-3.3,8.5-4.3C63.1,393.5,64.4,392.7,65,392.3z"/>
		<path class="st2" d="M-68.9,385.2c3.5,1.3,7.1,2.8,10.6,4.1c1.4,0.5,6.6,2.5,8.1,3.3l-3.7,1.2c-1.3,0.5-6.4,4.6-7.8,5.6
			c-3.5-2.3-6.6-4.8-10.2-6.8c-1.4-0.8-6-2-7.3-3.1C-76.5,388.5-71.5,386.2-68.9,385.2z"/>
		
			<linearGradient id="SVGID_2_" gradientUnits="userSpaceOnUse" x1="98.8732" y1="457.4284" x2="101.5106" y2="432.3532" gradientTransform="matrix(1 0 0 -1 0 841.67)">
			<stop  offset="0" style="stop-color:#81BC7F"/>
			<stop  offset="1" style="stop-color:#BDDCB3"/>
		</linearGradient>
		<path class="st3" d="M87.1,388.6c1.6-1.2,3.3-2.8,4.9-3.9c0.6-0.4,3.2-1,4.3-1.5c1.4-0.5,3.2-2.2,4.5-2.7c2.3-0.8,4.7-2.3,6.8-3.3
			c1.5-0.7,7,2.9,8.5,3.7c-1.1,1.1-2.3,2.3-3.4,3.4c0.6,0.5,8-1.8,9.7-1.3c2.4,0.6,17.9-3.8,18.8-3.5c0.1,0.2,1.5,1.1,1.5,1.3
			c-1.1,0.5-3.2,0.9-4.3,1.5c-5.1,2.8-9.6,4.2-14.5,7.2c-2,1.2-5.6,4.6-7.7,6.1c-0.9,0.7-3.7,3.3-4.7,3.6c-1.5,0.2-2.6,0.6-4,0.9
			c-1.1,1-2,1.6-3,2.6c-0.3,0.3-2.4,0.9-2.8,1.2c-0.6,0.4-2.8,1.7-3.4,1.9c-3.9,1.3-8.4,1.7-12.3,2.9c-0.8,0.2-4.3,2.7-5.3,3.3
			c-2-1.2-6.7-2.7-8.7-3.6c-0.7-0.3-3.9-1.2-5.4-1.9c-2.9-1.3-6.9-3.5-9.9-4.6c0.3-0.2,3.1-1.5,3.5-1.7c3.6-1.8,6.9-3.8,10.4-5.9
			c1.2-0.8,3.3-2.1,4.5-2.7c0.1-0.2,5.8-4.3,6.5-4.8l3,1L87.1,388.6z"/>
		
			<linearGradient id="SVGID_3_" gradientUnits="userSpaceOnUse" x1="-16.5445" y1="462.4675" x2="-18.581" y2="415.8829" gradientTransform="matrix(1 0 0 -1 0 841.67)">
			<stop  offset="0" style="stop-color:#7BB978"/>
			<stop  offset="1" style="stop-color:#CEE6C4"/>
		</linearGradient>
		<path class="st4" d="M1.9,370.4c0.8,0.5,1.1,1.2,1.9,1.7c0.6,0.4,1.1,0.3,1.7,0.6l4.3,1.3c3.4,3.4,3.9,5.3,7.1,8.7
			c0.8,0.8,3.9,2.3,5.2,3.2c1,0.5,9.3,2.8,10.1,3.1c3.3,1,6,1.6,9.3,2.5c1.1,0.3,6.7,1.3,7.8,2.1c2.7,1.5,3.6,1.9,5.9,4
			c0.6,0.6,3.3,3.1,3.8,3.4c2.9,1.1,6.1,2.9,9,4.2c1.5,0.7,4.6,1,5.3,1.3c2,1,7.2,3.8,9.1,5.1c-2,1.2-3.8,2.5-5.9,3.6
			c-1.6,0.9-6.3,1.9-7.7,3c-4.5-0.7-5.3-3-9.1-4.4c-0.4-0.1-1-0.9-1.3-1.2c-1.1,0.4-0.7,0.5-1.8,0.8l-2,1.6
			c-1.3-1.2-2.6-3.4-4.1-4.3c-0.7-0.4-1.4-0.4-1.6-0.5c-1-0.5-1.5-1.5-2.9-1.2c-0.5,0.1-1.3,0.6-1.5,0.4c0,0-0.8-0.1-0.8-0.1
			c-1.5,0.1-4.5,0.7-5.4,2c-1.1,0.2-1.9,0.3-3,0.7c-1.2,0.4-0.8,0.5-1.6,1c-1.3,0-0.5,0.1-1.9,0.6c-0.3-0.2-1.3,0.5-1.5,0.2
			c-1,0.3-1.8,1.7-3.4,1.8c-0.3,0-2-0.2-2.3-0.2c-3.4,0.7-4.4,1.1-7.8,2.1c-0.3,0.1-3.3,1.1-3.5,1.3c-2.1,1.5-3.6,1-5.8,2.3
			c-0.8,0.2-2,0.4-2.8,0.1c-4.4-1.3-6.4-4.7-10.7-6.3c-1.3,0.5-2.6,0.8-4,0.6c-0.7,0.1-1.5,0.9-2.2-0.4c-0.9-0.8-0.8-0.8-1.8-1.4
			c-2.1,1.2-1.8,2.6-4.4,2.6c0,0-3.2,2.5-4.5,2.1c-0.3,0-1.5,0.2-1.7,0.4c-1.6,0.1-2.3,0.4-3.8,0.2c-2,1.2-4.2,2.6-6.2,3.7
			c-2,1.1-4.2,0.5-6.4,2.6c-0.7-0.9-5.1-6.1-6-7.4c-5.1-2.5-9.2-4-14.4-6.5c-2.6-1.3-5.7-3.1-8.4-4c-0.8-0.3-3.9-1.5-5-1.7l-9.5-1.3
			c-2.6-3.3-6.4-7.5-8.9-11c-2.8-1-4.7-2.2-7.5-3.1c-1.4-0.5-3.5-0.6-4.9-1.1c-3.4-3.5-7.5-7.7-10.9-11.2c2-1.1,8-5.1,10.2-5
			c0.8,0,3.5,2,4.3,2.4c1.5,1,4.1,1.9,5.5,2.8c2.6,1.8,5.5,4.5,8.9,4.9c0.5,0.1,2.6-0.4,3.3-0.5c2.4,1.9,9,7.1,9,7.1l13.5,6.8
			c0,0,4.2-1.3,8.6-3.1c3.8-1.5,8.3-2.4,10.1-2.6c2.9-0.2,4.4-0.4,6.7-1.9c2.9-2,5.6-3.9,8.6-5.7c1-0.6,3.6-0.9,4.8-1.2
			c3.3-0.8,8-0.7,11.3-1.6c1.2-0.3,4.9-4.1,6.3-4.9L1.9,370.4z"/>
		
			<linearGradient id="SVGID_4_" gradientUnits="userSpaceOnUse" x1="-92.3754" y1="441.3685" x2="-101.6181" y2="418.8535" gradientTransform="matrix(1 0 0 -1 0 841.67)">
			<stop  offset="0" style="stop-color:#3B783C"/>
			<stop  offset="1" style="stop-color:#6DA358"/>
		</linearGradient>
		<path class="st5" d="M-147,359.9c3.4,2.1,8.2,5,11.1,7.7c2.8-1.2,5.4-2.5,8.5-2.3c2,1.1,10.3,9.8,12.2,12
			c3.4,3.5,6.8,7.2,10.2,10.7c1.4,0.5,2.9,0.8,4.3,1.3c2.8,0.9,5.5,2,8.3,3c2.4,3.4,5.8,8.2,8.4,11.5l9.2,1.3
			c1.1,0.2,4.4,0.6,5.2,0.8c2.7,0.9,5.7,3,8.3,4.3c5.2,2.5,10.5,4.7,15.6,7.3c0.9,1.3,4,6.1,4.7,7l0,0.1c0.4,0.7,1.6,1.6,1.4,2.4
			l0.6,0.3c0.3-0.1,0.4-0.2,0.8-0.2c0.3,0.3,0.4,0.4,0.7,0.7c0.8-0.3,0.2-0.7,0.9-0.5c0.5,0.5,1.7,2.1,2.1,2.2
			c0.4-0.1,0.5-0.2,0.9-0.2c0.2,0.2,0.3,0.3,0.3,0.7c-1.8,0.1-7.4,0.3-8.9,0.7c-1.5,0.4-6.1,3.4-7.8,4.1c-4,1.7-8.1,3.2-12.1,4.9
			c-0.7,0.3-3.6,1.6-4.2,1.7c-3.4,0.6-7.4,0.5-10.8,1c-7.2-0.2-14.8,0-22,0c-4.3-2.7-8.6-4.5-13.8-3.9c-3.3,0.4-3.9-0.2-6.7-1.6
			c-4.6-2.2-8.5-5.2-13.1-7.5c-2.8,0.5-5.6,1-8.4,1.6c-1.9-0.7-4-1.4-6-2.1V417V398v-2.6v-18.3V359.9z"/>
		
			<linearGradient id="SVGID_5_" gradientUnits="userSpaceOnUse" x1="-103.8111" y1="444.0547" x2="-105.3254" y2="400.7616" gradientTransform="matrix(1 0 0 -1 0 841.67)">
			<stop  offset="0" style="stop-color:#20532A"/>
			<stop  offset="1" style="stop-color:#437E3F"/>
		</linearGradient>
		<path class="st6" d="M-147,395.4c0.5,0.4,0.9,0.8,1.5,0.8c1-0.2,2,0,3,0.1c1.5,1.7,2.9,3.2,4.5,4.8c0.1,0.6,0.2,1.1,0.6,1.4
			c1.1,0.4,2.3-0.7,3.3-1.2c1,0.2,2.1,0.3,3.1,0.6c1.5,1.5,3,3,4.4,4.5c0.7,0.7,2.4,2.6,3.2,3.1c3.5,2.4,6.3,1.9,9.1,5.3
			c3.1-1,6.3-1.9,9.4-2.9c2.7,2,7.1,5,9.7,6.8c1.5,1,10.5,3.6,12.5,4c1.1,1.2,5,5.6,6.1,6.2l0.4-0.3c1.1,0.4,1.8,2.7,3.5,1.5
			c0.7,0.3,0.9,1.4,1.7,1.9c2.9,2.1,6.2,3.9,8.9,6.3c0.1,0.1,0.2,1.1,0.2,1.3c-0.7,0.3-3.6,1.6-4.2,1.7c-3.4,0.6-7.4,0.5-10.8,1
			c-7.2-0.2-14.8,0-22,0c-4.3-2.7-8.6-4.5-13.8-3.9c-3.3,0.4-3.9-0.2-6.7-1.6c-4.6-2.2-8.5-5.2-13.1-7.5c-2.8,0.5-5.6,1-8.4,1.6
			c-1.9-0.7-4-1.4-6-2.1V417V398V395.4z"/>
		<path class="st7" d="M-147,417c2.1,1.2,2.6,1.2,4.9,1.9c0.4,0.1,2.1,1,2.5,1.3l0.7-1.4c0.9,0.3,1.6,0.6,2.6,0.9l0.5-0.8
			c1.1-0.2,0.4,1.3,1.9-0.6c1.5,2.1,2.4,0.3,3.7,2.3c0.7,1.1,1.2,2,2.2,2.9l0.3-1.9c0.7,0.8,1.4,1.7,2.2,2.5l0.7-1.7
			c0.8,1,1.6,2.2,3,2.4c1.4,0.2,1.7,0.6,2.7,1.5l0.6-2c0.6,0.8,1.3,2.1,2.2,2.4c0.4-0.1,0.4-0.2,0.7-0.5c0.4,0.1,0.4,0.1,0.6,0.4
			l0.4-0.3c1,0.4,1.2,2.2,2.6,2.7c0.3-0.2,0.3-0.3,0.4-0.6c1.1-0.1,2.1,1.7,2.8,1.9c0.5-0.4,0.3-0.3,0.8-0.3
			c0.3,0.2,0.5,0.5,0.7,0.7c1.1-1.4,1.2-1.6,1.6-3.3c0.4,0.5,0.7,1.1,1.3,1.3c0.3-0.1,0.5-0.1,0.8-0.2l0.4,0.4
			c0.5-0.4,0.2-0.8,0.6-1.2c0.4,0.3,0.4,0.4,0.7,0.8l0.2,0.1c0.2-0.2,0.3-0.4,0.4-0.6c1,0.3,1.3,2.3,2.1,2.1l0.3-0.4
			c0.7,0.1,1.2,1.1,1.6,1.8c0.3-0.7,0.6-1.3,0.9-2c0.8,1.3,1.5,3.3,3,3.7c0.1,0,0.6,0.6,0.9,0.7c0.3-0.6,0.1-1,0.5-1.2
			c0.9,0.8,1.6,2.1,2.3,2.5c0.8-0.2,0.8-1.3,1-2c0.5,0.6,1.3,1.9,2,2.1c2-1,2,0.9,3.3,1.6c0.3-0.1,0.6-0.3,0.8-0.2
			c1.8,1.1,3.8,2.4,5.6,3.5c0.1,0.6,0.4,1.9,0.2,2.3l-0.2,0.1c-7.2-0.2-14.8,0-22,0c-4.3-2.7-8.6-4.5-13.8-3.9
			c-3.3,0.4-3.9-0.2-6.7-1.6c-4.6-2.2-8.5-5.2-13.1-7.5c-2.8,0.5-5.6,1-8.4,1.6c-1.9-0.7-4-1.4-6-2.1V417z"/>
		<path class="st7" d="M-147,395.4c0.5,0.4,0.9,0.8,1.5,0.8c-0.2,0.7,0,1.5-0.3,2c-0.5,0.2-0.7,0-1.2-0.2V395.4z"/>
		<path class="st8" d="M-147,359.9c3.4,2.1,8.2,5,11.1,7.7c2.8-1.2,5.4-2.5,8.5-2.3c2,1.1,10.3,9.8,12.2,12
			c3.4,3.5,6.8,7.2,10.2,10.7c1.4,0.5,2.9,0.8,4.3,1.3c2.8,0.9,5.5,2,8.3,3c2.4,3.4,5.8,8.2,8.4,11.5l9.2,1.3
			c1.1,0.2,4.4,0.6,5.2,0.8c2.7,0.9,5.7,3,8.3,4.3c5.2,2.5,10.5,4.7,15.6,7.3c0.9,1.3,4,6.1,4.7,7l0,0.1c-0.6,0.6-1.5,1.8-2,2.1
			l-0.3,0c-0.3,0.4-0.3,0.5-0.7,0.7c-0.8-0.3-0.5-0.9-1.3-1.2l-0.4,0.5c-1,0.2-1.8-1.8-2.7-2.1c-0.2,0.3-0.2,0.3-0.4,0.5
			c-0.8-0.4-1.6-2.2-2.6-2.2l-0.5,0.7c-0.5,0-1-0.6-1.4-0.9c-0.6,0-0.1,0.3-0.7,0.6c-0.6-0.2-1.1-1.3-1.3-1.3
			c-1.5-0.5-1.9-0.1-3.1-1.2l-0.3,0c-0.1,0.3-0.2,0.5-0.4,0.7c-0.7-0.2-0.8-1-1.4-1.2l-0.4,0.4c-0.8-0.3-1.5-1.5-2.4-1.8
			c-0.4-0.1-1.8,0.4-2,0.2c-2-1.9-2-2.1-4.5-3.2l-2.3,1.2c-0.2-0.5-0.2-0.7-0.5-1.1c-1.1,0.3-1.4-0.7-2.6,0c-0.5-0.1-1-0.8-1.5-1.2
			c-1.6,0.3-1.9-0.3-3-1.4l-1.2,0.9c-0.5-0.7-0.8-1.3-1.3-1.9c-0.6-0.2-0.1,0.2-0.8,0.4c-0.3-0.2-0.3-0.4-0.5-0.7
			c-0.2,0.2-0.2,0.2-0.3,0.3c-0.7-0.3-0.6-1.3-1.5-1.5l-0.5,0.4c-0.6-0.1-0.6-0.7-1.2-0.8c-0.2,0.3-0.2,0.3-0.4,0.6
			c-0.8-0.8-2.8-2.2-3-3.1l-0.2-0.1c-0.2,0.3-0.2,0.4-0.5,0.6c-0.7-0.4-1.1-1.6-1.8-2c-1.4,1.1-1.6-0.4-3.8,1.4
			c-0.5-0.7-0.5-0.7-1.3-0.7c-0.8-0.5-1.2-2.1-2.1-2.2c-0.2,0.3-0.2,0.5-0.3,0.9c-0.8-0.1-1.3-2.2-2.4-2.7c-1.4,0.4-0.7-0.3-1.8-0.7
			c-0.2,0.2-0.2,0.2-0.4,0.4c-0.7-0.3-1.5-1.7-1.9-2.4l-1,1c-0.3-0.5-1-1.8-1.8-1.5c-0.5,0.2-0.9-0.6-1.2-1.1
			c-1-1.2-3.1-3.5-4.4-4.3c-0.3,0.1-0.4,0.2-0.6,0.4l-0.1,0.1c-0.8-0.3-0.7-1.5-2.4-1.1c-1.1,0.3-1.3-0.1-2.1-0.7
			c-1.4,0-0.9,0-1.6-1.1c-0.3,0-1.1,0.3-1,0.3c-0.6-0.3-1-1.1-1.6-1.6c-0.7-0.6-0.8-0.3-1.4,0.1c-0.8-0.6-1.3-2.3-2.1-2.5l-0.4,0.4
			l-0.3-0.1c-0.2-0.4-0.3-0.5-0.6-0.8l-0.4,0.2c-1.1-0.8-1.1-3.2-2-3.6c-0.2,0.2-0.4,0.5-0.6,0.7c-0.5-0.3-0.5-1.4-1.1-1.8
			c-0.3,0.2-0.4,0.4-0.6,0.7c-0.5,0-0.5-0.2-0.9-0.6c-0.4,0.1-0.3,0.1-0.6,0.6c-0.5,0-0.2-0.4-0.8-0.8l-0.3,0.5
			c-0.7-0.3-0.7-1.1-1.5-1.4c-0.2,0.2-0.2,0.3-0.5,0.4c-0.7-0.5-0.5-1.3-1.1-1.8c-0.1-0.1-0.9,0.3-1.1-0.1c-0.4-0.6-0.3-1-0.8-1.4
			c-0.8,0.8-0.4,0-1-0.2c-0.2,0.3-0.3,0.4-0.6,0.6c-0.7-0.3-1-1.5-1.7-1.9c-0.3,0.2-0.3,0.3-0.5,0.6l-0.1,0.1l-0.2-0.1
			c-0.3-0.5-0.6-1-0.8-1.6L-147,359.9z"/>
		<path class="st9" d="M-135.9,367.6c2.8-1.2,5.4-2.5,8.5-2.3c2,1.1,10.3,9.8,12.2,12c3.4,3.5,6.8,7.2,10.2,10.7
			c-3.7-0.5-11-2.3-13.6-4.8c-2.8-2.7-5.9-7.8-8.7-10.5C-128.7,371.3-134,368.4-135.9,367.6z"/>
		<path class="st10" d="M-43.3,426.5l0.3,0c0.5-0.3,1.4-1.5,2-2.1c0.4,0.7,1.6,1.6,1.4,2.4c-0.2,0.1-0.4,0.2-0.6,0.3
			c-0.7-0.4-1.1-0.2-1.8,0.2C-42.5,427.3-42.9,426.9-43.3,426.5z"/>
		<path class="st8" d="M1.5,368.3c0.8,0.5,1.5,1,2.2,1.5c0.6,0.4,1.2,0.7,1.8,1.1l4.9,0c3.4,3.4,5.9,7.1,9.1,10.4
			c0.8,0.8,5.3,2.5,6.6,3.4c0,0.5,0.3,0.8,0.7,1.2l-0.1,0.2c0.4,0.5,1.4,1.2,1.7,1.7c0.4,0.8,2.6,3,2.9,3.7l-0.2,0.1
			c-0.7-0.2-2.2-2.5-3.3-2.5c0.2,0.4,1.5,1.2,2.1,1.8c-1-0.3-0.7-0.1-1.6-0.2c-1.6-0.2-3.4,0.5-4.8,0c-1.3-0.4-3-0.8-4.4-0.9
			c-0.7-0.1-2.1-0.1-2.8-0.1c0.4,0.4,1.3,1.1,1.6,1.5c-1,0.5-3.4-1.3-4.3-1.5c-1.5-0.4-7.1,0-8.3,0.6c-0.4,2.3,7.3,4.8,9.1,7
			c-0.5-0.1-1.3-1.2-2.2-1.5c-1.5,0.5-2.9-0.7-4.3,0.2l-0.1,0.1c-0.2-0.2-17.4-7-19.1-7.7c0.6,2.8,1.6,3.8,3.2,6.1
			c-1.8-0.4-3.4,0.1-5.1-0.1c-4-0.4-7.8,0.1-11.7-0.8c-2.8-0.7-5.9-0.3-8.7,0c-1.2,0.2-2.6,0-3.8,0.2c-3.7,0.5-6.9,0.4-10.6-0.4
			c-1-0.2-2.4,0.8-3.4,0.7c-0.5,0-2.5-0.1-4.1,0.3l2.7-2c3.4-2.2,5.6-1.7,9.5-2c2.9-0.2,3.5-0.9,5.8-2.5c2.9-2,5.7-4.1,8.7-5.9
			c1-0.6,2.9-0.8,4-1.2c3.3-0.8,7.2-1.5,10.4-2.4c1.2-0.3,5.2-3,6.6-3.9L1.5,368.3z"/>
		<path class="st9" d="M14.6,388.4c-1.8-1.1-4.5-2.6-6-3.9c-0.9-0.8-2.4-2.9-3.3-3.9c-0.6-0.7-2-2.5-2.3-3.3
			c-0.8-2.1-1.4-4.5-2.2-6.7c-0.2-0.6-0.3-1,0-1.5c1.2-1,1.6,0.7,2.9,0.6c0.6,0.4,1.2,0.7,1.8,1.1l4.9,0c3.4,3.4,5.9,7.1,9.1,10.4
			c0.8,0.8,5.3,2.5,6.6,3.4c0,0.5,0.3,0.8,0.7,1.2l-0.1,0.2c0.4,0.5,1.4,1.2,1.7,1.7c0.4,0.8,2.6,3,2.9,3.7l-0.2,0.1
			c-0.7-0.2-2.2-2.5-3.3-2.5c0.2,0.4,1.5,1.2,2.1,1.8c-1-0.3-0.7-0.1-1.6-0.2c-1.6-0.2-3.4,0.5-4.8,0c-1.3-0.4-3-0.8-4.4-0.9
			c-0.7-0.1-2.1-0.1-2.8-0.1C15.8,389.5,15.2,388.5,14.6,388.4L14.6,388.4z"/>
		<path class="st9" d="M-0.7,385.7c1.2,0,3.3-0.1,4.4,0.1c1.3,0.2,3,1.6,4.4,2.1c1.3,0.5,3.2,0.5,4.4,1c1.7,0.6,3.3,1.5,5.1,2.2
			c-0.7-0.6-2.5-1.9-3-2.5c0.7,0.1,1.2,1,1.7,1.1c0.4,0.4,1.3,1.1,1.6,1.5c-1,0.5-3.4-1.3-4.3-1.5c-1.5-0.4-7.1,0-8.3,0.6
			c-0.4,2.3,7.3,4.8,9.1,7c-0.5-0.1-1.3-1.2-2.2-1.5c-1.6-0.6-4.7-2.4-6.2-3.3C3.1,387,3.3,389-0.7,385.7z"/>
		
			<linearGradient id="SVGID_6_" gradientUnits="userSpaceOnUse" x1="40.1988" y1="455.1609" x2="38.5699" y2="439.4568" gradientTransform="matrix(1 0 0 -1 0 841.67)">
			<stop  offset="0" style="stop-color:#69AB73"/>
			<stop  offset="1" style="stop-color:#98C99A"/>
		</linearGradient>
		<path class="st11" d="M26,384.7c1,0.5,4,2.1,4.8,2.3c3.3,1,7.7,1.5,11,2.4c1.1,0.3,6,3.3,7.2,4.1l-0.4,0.2
			c0.1,1.3,3.5,6.4,4.3,7.5c-1.5-0.6-2.8-1.7-4.2-2.6c-1.4-0.8-2.9-1.3-4.5-1.8c1.5,2.4,3.3,4.8,4.7,7c-3.1-2.4-6.5-4.4-9.6-6.7
			c-1.2-0.9-3.1-1.8-3.9-3.1c-0.7-0.5-1.4-1.9-2.1-2.7c-1-1.1-1.3,0.2-2.1,0.1c-0.3-0.6-2.5-2.9-2.9-3.7c-0.3-0.5-1.3-1.2-1.7-1.7
			l0.1-0.2C26.4,385.5,26.1,385.2,26,384.7z"/>
		<path class="st9" d="M31.3,391.5c-0.3-0.6-2.5-2.9-2.9-3.7c-0.3-0.5-1.3-1.2-1.7-1.7l0.1-0.2c2.6,2.6,7.5,4.7,8.7,8.1
			c-0.7-0.5-1.4-1.9-2.1-2.7C32.4,390.2,32.1,391.5,31.3,391.5z"/>
		<path class="st9" d="M-11.6,388.1c1.8,0.7,18.9,7.5,19.1,7.7c0.7,0.4,2.2,2,2.8,2.6c-0.2,0-2-1.7-2.4-2c-0.4-0.3-0.8-0.6-1.5-0.8
			c-5.4-1.9-10.6-4.3-15.9-6.2c-0.2-0.1-1,0.3-1.3,0.5c0.1,0.3,3.5,5.6,4,6.4l-0.1,0.1c-0.4-0.7-1-1.5-1.5-2.2
			C-10,391.9-11,391-11.6,388.1L-11.6,388.1z"/>
		<path class="st12" d="M-147,320.9h300v9c-0.7-0.1-1.8,0-2.5,0.1l-0.2-0.2c-1.1,0.3-1.9,0.9-2.6,1.2c0,0-3,0.5-3.1,0.5
			c-2.1,0.1-4.5-0.7-6.6,0.2c-0.1,0.1-0.2,0-0.3,0l-0.1-0.4c-3-0.4-7.8-0.4-10.8-0.1c-3.1,0.3-6,0.6-9.2,0.6c-1.2,0-3,0.6-4.3,0.5
			c-1.7,0-3.5-0.2-5.2-0.2c-3.1,0.1-6.1,0.1-9.2,0.1c-3.9-0.2-7.9-0.6-11.8-0.8c-1.2-0.1-3.5,0.2-4.7,0.3c-6.1,0.5-12,0.6-18.1-0.2
			c-1.8-0.2-4.9,0.7-6.9,0.4c-2.3-0.2-4.8-0.5-7.1-0.8c-0.3,0-2.9,0.3-3.3,0.4c-1.7,0.2-3.4,0.3-5.2,0.3c-1.6,0-3.5-0.2-5.1-0.3
			c-5.9-0.4-11.1,0.4-17-0.1c-1.9-0.1-3.9-0.2-5.8-0.2c-0.8,0-2.4-0.1-3.1,0.1c-2.7,0.5-4.9,0.6-7.6,0.7c-4.4,0-8.9-0.2-13.3-0.5
			c-1.3-0.1-2.6-0.3-3.9-0.5c-0.8-0.1-2,0.4-2.7,0.4c-1.4,0-2.7-0.1-4.1-0.1c-1.3,0-3,0.4-4.1,0.4c-1.6,0-3.6,0.4-5,0.5
			c-2.4,0.2-5.9-0.5-8.5-0.1c-0.2,0-0.9,0.8-0.9,0.8c-1.1,0-1.3-0.4-2.3,0l-1.8,0c-1.9-0.5-4.3,0.9-5.6,0.8
			c-1.4-0.3-4.7,0.2-5.9-0.2c-4.6-1.4-9.1-2.2-13.9-1.5c-1.3,0.2-3.2,0.7-4.4,0.4c-0.5-0.1-1.5-0.6-2.1-0.7
			c-5.3,0.2-10.5,0-15.8-0.1c-1.4,0-2.9,0.1-4.3,0c-1.3-0.1-2.8-1.1-4.3-0.9c-1.4,0.1-1.3-0.4-2.4,0.6c-0.5-0.1-1-0.2-1.5-0.2
			l-0.2,0.2c-1.1-0.1-2.2-0.3-3.2-0.4c-2.4-2.8-5.6-3.3-9.1-3.3c-1.8-2.2-3.4-2.4-6.2-2.8c-2.9-0.3-4.9,0.1-7.4,1.6
			c-0.7-0.3-1.7-0.7-2.4-0.7c-2.4,0-7.1,0.6-9.2,1.8c-3.3,1.7-2.2,1.3-5.8,1.7L-147,320.9z"/>
		<path class="st0" d="M-105.8,340.9c1.4-1.1,2.1-1.1,3.7-1.6c5-1.4,9.9-2.3,15.1-3.1c2.2-0.3,4.7-1.6,6.9-2.1
			c1.7-0.4,3.3-0.4,5-0.5c1-0.1,2.6-0.6,3.6-0.8c2-0.4,4-0.6,6-0.7c2.5,0,4.9,0.2,7.3,0.8c2.1,0.5,3.7,1.2,6,1
			c0.9-0.1,2.3,0.2,3.2,0c1.9-0.4,3.8-0.7,5.7-1l1.8,0c4.8,0.6,6.8,2.4,11.4,3.3c4.7,0.9,11.5-0.7,15.1,2.3
			c3.3-0.1,6.8,0.9,10.2,0.5c0.9-0.1,2.6-0.1,3.3,0.5l0,0.2c-1.6,1.2-6.4,1-8.4,1.2c-0.7,0.1-1.5,0.6-2.1,0.7
			c-1.5,0.2-2.8-0.3-4.1,0.7c-0.9,0.7-1.9,1.3-3,1.8c1.2,0.2,2.3,0.2,3.3,0.3c3.1,0.2,5.9-0.9,8.4,1.3c1.4,0.5,4.7,0.1,6.2-0.1
			c3.9-0.5,5.3,1.8,8.7,2.2c0.1,0,2.2-0.7,2.5-0.8c0.9,0.2,1.7,0.7,2.6,0.9c0.9,0.2,4.3,0.5,4.7,1.2c-1.4,0.9-9.9,0.9-11.9,0.9
			c-1.3,0-2.9,0.3-4.2,0.3c-14.5-0.8-29.1-1.5-43.6-0.9c-4.1-0.1-8.3-0.1-12.4-0.3c-5.3-0.3-10.2,0.6-15.5,0.8
			c-3.6,0-7.3-1.3-10.8-1.3c-7.3,0.1-13.5,2.9-20.7,0.7c-1.9-0.6-7.2,0.3-9.5-0.4c-1.8-0.6-5.2-1.5-6.7-3c-3.1-4.1,6.9-4.6,9.2-5.2
			C-108.3,340.6-106.3,340.8-105.8,340.9L-105.8,340.9z"/>
		<path class="st13" d="M87.1,388.6c1.6-1.2,3.3-2.8,4.9-3.9c0.6-0.4,3.2-1,4.3-1.5c1.4-0.5,3.2-2.2,4.5-2.7
			c2.3-0.8,4.7-2.3,6.8-3.3c1.5-0.7,7.8,3.3,9.3,4.1c-1.1,1.1-1.7,2.7-4.2,3.1c-0.7,0.7-2.8,2.9-3.2,3.2c-3.1,2.3-6.9,4.2-10.2,6.4
			c-1-0.6-2.3-1.3-3.3-1.9c-0.7,0-1.8,0.1-2.4,0.5c0,0.4,0.2,0.6,0.4,0.9c-1-0.4-2.1-3-2.5-4c-1.7,0.1-2.3-0.2-3.8-0.7L87.1,388.6z"
			/>
		<path class="st9" d="M91.7,389.6c1.4,0.7,3.1,1.8,4.4,2.6c-0.7,0-1.8,0.1-2.4,0.5c0,0.4,0.2,0.6,0.4,0.9
			C93.3,393.1,92.1,390.6,91.7,389.6L91.7,389.6z"/>
		<path class="st8" d="M81.4,386.8l3,1l2.6,0.9l0.9,0.3c0.2,0.3,1.2,1.2,1.2,1.3c-0.7,0-0.2-0.4-0.7-0.1c0.3,0.6,1,1,1.5,1.5
			c-0.5,0.4-0.7,0.4-0.8,0.9c0.4,0.5,0.7,0.7,0.9,1.3l0.1,0.2c-1,0.2-5.3-2.3-6.6-2.6c-1.2-0.3-1.7-0.3-3-0.5
			c0.4,0.7,1.1,1.7,1.6,2.4c-2.7-0.6-6.7,0.3-8.5-0.7c0.3-0.7,0.7-0.2,1.2-1.1C75.1,391.4,80.8,387.3,81.4,386.8z"/>
		<path class="st9" d="M84.4,387.7l2.6,0.9l0.9,0.3c0.2,0.3,1.2,1.2,1.2,1.3c-0.7,0-0.2-0.4-0.7-0.1c0.3,0.6,1,1,1.5,1.5
			c-0.5,0.4-0.7,0.4-0.8,0.9c0.4,0.5,0.7,0.7,0.9,1.3c-0.7-0.5-1.8-2-2.5-2.7C86.7,390.3,84.8,388.9,84.4,387.7z"/>
		<path class="st8" d="M87.9,388.9c1.6,0.5,2.2,0.7,3.8,0.7c0.4,1,1.5,3.5,2.5,4l1,1.4c-2.1-1.6-4.1-3.2-6.1-4.8
			C89.1,390.2,88.1,389.2,87.9,388.9z"/>
		<path class="st9" d="M153,364.4v17.4c-2.6-0.6-9.4-2.4-11.7-1.8c0-0.2,0-0.2-0.1-0.3c-0.8-0.3-16.4,4.1-18.8,3.5
			c-1.7-0.5-9,1.8-9.7,1.3c1.1-1.2,2.3-2.3,3.4-3.4c1.8-1.8,3.3-3.4,4.9-5.4c2.4-3.1,5.4-5.6,8.7-7.7c2.6,0.8,4,1.5,6.5,2.7
			c4.7-1.3,8.4-1.4,12.5-4.2C149.6,365.7,151.9,364.8,153,364.4z"/>
		<path class="st0" d="M-129.5,326.5c2.5-1.5,4.4-1.9,7.4-1.6c2.8,0.3,4.4,0.6,6.2,2.8c3.5,0,6.7,0.5,9.1,3.3
			c1.1,0.1,2.2,0.2,3.2,0.4c1.8,0.8,5.2,0.2,6.9,1.2c-0.8,0.4-7.7,0.4-9.4,0.6c-5.6,0.8-10.6,3-16.4,2.8c-3.4-0.1-6.7,1.3-10.2,1.1
			c-3-0.2-5.7-0.6-8.7-1.1c-1.3-0.2-4.1,0-5.7,0v-6.6c3.7-0.4,2.6,0,5.8-1.7c2.1-1.1,6.8-1.8,9.2-1.8
			C-131.2,325.8-130.2,326.2-129.5,326.5z"/>
		<path class="st0" d="M150.5,330c0.7-0.1,1.8-0.2,2.5-0.1v9.5c-2.1-0.1-3.9-0.1-6,0.3c-2.2,0.4-4.4,0.6-6.6,0.7
			c-3,0.2-5.8-0.6-8.7-1c-3-0.1-6.1,0.3-9.1,0.3c-1.9-0.1-4.1-0.5-5.9-0.9c-2.1-0.5-5.8-0.1-7.5-0.9l0-0.2c0.9-0.6,3.7-0.7,4.9-0.8
			c4.2-3.3,14.7-2.1,19.9-1.9c-0.7-0.2-1.8-0.4-2.1-1.1c1.3-2.6,10.1-2.5,12.7-2.2C146.2,331.9,149,330.7,150.5,330z"/>
		<path class="st0" d="M-147,348.8c1.6,0.3,3.8-0.7,5.7-0.5c2,0.2,3,1.6,4.6,2c2,0.5,4.8,0.8,6.8,1c1,0.1,3.1-1.2,4.1-0.1l0,0.6
			c1.5,0.6,6.2,0.5,8,0.6c1.3,0.1,2.7-0.2,3.9,0.7l0.1,0.3c-1,2.3-8,1.4-10,1.5c-1.7,0.1-3.4,0.6-5,0.8c0.5,0.1,1,0.2,1.3,0.5
			c-0.9,1.7-16.9,0.6-19.5,0.6V348.8z"/>
		<path class="st0" d="M153,348.5v6.8c-4.7,0-9.4-0.1-14.1-0.2c-3.4-0.1-6.7,0-10.2-0.2c1.1-0.4,3.2-0.9,4.4-1.1
			c1.4-2.3,3.8-1.8,6.2-1.6c2.3-3,5.9-3.4,9.3-2.6C150.5,348.8,151,348.5,153,348.5z"/>
		<path class="st14" d="M109.1,349.3c2.1,0.2,2.9,0.8,3.9,2.6c1.1-0.3,4.2-1,4.9,0.3c-2.6-0.6-4.3,0.8-5.8,0.5
			c0-0.1-0.1-0.3-0.1-0.4C111.3,350.5,110.7,350.1,109.1,349.3z"/>
		<path class="st14" d="M118.5,355.6c1.6-0.2,2.1,0,3.4,0.8c0.9-0.6,2-1,3.1-0.7l-0.4,0.1c-1.4,0.4-1.8,0.7-2.8,1.7
			C120.7,356.3,120.2,355.9,118.5,355.6L118.5,355.6z"/>
		
			<linearGradient id="SVGID_7_" gradientUnits="userSpaceOnUse" x1="115.3581" y1="433.2541" x2="112.0538" y2="407.2662" gradientTransform="matrix(1 0 0 -1 0 841.67)">
			<stop  offset="0" style="stop-color:#2A6031"/>
			<stop  offset="1" style="stop-color:#46843E"/>
		</linearGradient>
		<path class="st15" d="M153,396.5v7.1v16.9c-2.8,0.9-5.8,1.9-8.7,2.7c-2.9,0.5-5.2,1.5-7.9,2.4c-2,0.7-5.5,0-7.6,0.7
			c-5.2,1.9-10.2,4.3-15.4,6.1c-1.9,0.6-5.4-0.6-7.4-0.3c-0.8,0.1-3.2,1-4.1,1.3c-2.4-1.3-4.9-2.6-7.3-4c-1.1,0-3.8-0.1-4.6,0
			c-1.1-0.6-2.4-1.2-3.4-1.8c-1.3-0.8-2.6-1.8-3.9-2.5c-2.7,0.1-6.1,0.5-8.4-0.6c0.5-0.3,3.8-0.9,4.6-1.1c0.9,0.5,1,0.5,1.9,0.3
			C79.1,422.6,153,396.5,153,396.5z"/>
		
			<linearGradient id="SVGID_8_" gradientUnits="userSpaceOnUse" x1="94.6489" y1="443.852" x2="93.206" y2="417.6621" gradientTransform="matrix(1 0 0 -1 0 841.67)">
			<stop  offset="0" style="stop-color:#69A468"/>
			<stop  offset="1" style="stop-color:#A7CFA1"/>
		</linearGradient>
		<path class="st16" d="M105.9,399c1.4-0.2,3-0.4,4.5-0.5c1.8,0.9,4.2,4.8,5.9,6c1.3,0.9,3.1,0.1,4.2,1.4c-0.8,0.4-3.3,3.6-4.4,4.1
			c-2.3,1-4.7,2-7,3c-0.5,0.2-0.8,1.5-1.7,1.2c-0.1,0-0.2-0.1-0.3-0.1c-1.7,0.8-2.9,1.1-4.4,2.3c-1.1,0.9-2.4,1.4-3.7,1.6
			c-0.4,0.4-0.9,0.9-1.2,1.4c-0.7,0.2-3.7,1.1-4.1,1.4c-1.1-0.2-2.5,0-3.4,0.4c-1.8,0.9-7.8,1.8-9.3,2.7c-1.5-1.1-6.5-1.6-8.3-2.8
			c-1.4-0.9-3.5-2.8-5.1-3.5c1.4-1.1,5.3-2.4,7-3.2c2.1-1.1,4.2-2.4,6.2-3.6c1-0.5,3.9-2.5,4.8-2.7c4-1.1,8.6-1.6,12.5-2.9
			c0.6-0.2,1.9-1.6,2.5-2c0.4-0.3,2.2-0.9,2.5-1.2C103.8,401,104.8,400,105.9,399L105.9,399z"/>
		
			<linearGradient id="SVGID_9_" gradientUnits="userSpaceOnUse" x1="130.041" y1="459.6362" x2="133.6831" y2="438.0702" gradientTransform="matrix(1 0 0 -1 0 841.67)">
			<stop  offset="0" style="stop-color:#60A05B"/>
			<stop  offset="1" style="stop-color:#88B875"/>
		</linearGradient>
		<path class="st17" d="M141.3,380c2.3-0.6,9.1,1.2,11.7,1.8v11.6c-2.3,0.7-4.2,1.4-6.4,2.4c-0.5,0.2-1.9-0.1-2.4,0.4
			c-1.2,0.8-2.5,1.2-3.8,1.8l-0.9-0.8c-1.8,0.7-3.6,0.9-5.2,1.6c-3.1,1.2-6.3,2.3-9.4,3.4c-0.8,0.6-3.8,4.1-4.8,3.9
			c-1-1.3-2.7-0.5-4-1.4c-1.7-1.2-4.4-5.3-6.2-6.2c1-0.3,3.8-2.8,4.8-3.5c2.1-1.5,4.5-5.9,6.5-7.1c4.9-3,11.5-3.4,16.6-6.2
			C138.7,381.1,140.1,380.5,141.3,380L141.3,380z"/>
		
			<linearGradient id="SVGID_10_" gradientUnits="userSpaceOnUse" x1="121.9045" y1="442.5731" x2="125.5256" y2="421.6779" gradientTransform="matrix(1 0 0 -1 0 841.67)">
			<stop  offset="0" style="stop-color:#417F43"/>
			<stop  offset="1" style="stop-color:#6FA55F"/>
		</linearGradient>
		<path class="st18" d="M153,393.4v10.2c-1,0.6-1,0.3-1.9-0.4c-0.5,0.6-0.8,0.9-1.6,1.1c-2.5,0.7-2.6,2.2-4,3.6
			c-0.3-0.5-0.5-1-0.7-1.5c-0.6,0.8-1.3,1.8-2,2.5c-0.3-0.5-0.6-1.1-0.9-1.5c-1.5,2.1-1.8,1.2-3.2,3.1c-0.4-0.4-0.6-0.6-0.9-1
			c-0.4,0.5-2.3,2.2-2.8,2.3c-0.2-0.3-0.3-0.4-0.5-0.8c-1.3,0.1-2.7,3.3-4,2.6c-0.8,0.3-1.5,1.6-2.2,1.8c-0.4-0.3-0.5-0.5-0.8-0.9
			c-0.4,0.4-0.9,1-1.5,1.1c-0.9-0.3-1.1-0.9-1.5-1.6c-0.2,0.5-0.9,2-1.3,2.2l-0.4-0.2c-0.7,0.4-0.4,1.1-1.1,1.7c-2.5-1-1.4,2-4,0.3
			c-0.2,0.3-0.7,1-1.1,1.1c-2.5,1.1-5.1,3.6-7.6,4.4c-0.4-0.2-0.8-0.5-1-0.6c-0.9,0-1.9-0.2-2.8-0.4c-1.1-0.5-9.9-1.5-11.8-1.7
			c0.4-0.4,3.4-1.2,4.1-1.4c0.4-0.5,0.8-1,1.2-1.4c1.4-0.1,2.7-0.7,3.7-1.6c1.4-1.2,2.6-1.5,4.4-2.3c0.1,0,0.2,0.1,0.3,0.1
			c0.9,0.3,1.2-1,1.7-1.2c2.3-1,4.7-2,7-3c1.1-0.5,3.6-3.7,4.4-4.1c1,0.2,3.5-3.3,4.4-3.6c3.1-1.1,6.3-2.2,9.4-3.4
			c1.6-0.6,3.5-1.2,5.3-1.9l0.9,0.8c1.3-0.6,2.4-0.9,3.7-1.7c1.1-0.9,2.2-0.1,2.7-0.4C148.9,394.6,150.7,394.1,153,393.4z"/>
		<path class="st10" d="M105.4,422.4c0.9,0.2,1.9,0.4,2.8,0.4l-1.7,1.2C106.1,423.5,105.7,422.9,105.4,422.4L105.4,422.4z"/>
		
			<linearGradient id="SVGID_11_" gradientUnits="userSpaceOnUse" x1="43.4772" y1="433.3922" x2="42.9162" y2="411.3397" gradientTransform="matrix(1 0 0 -1 0 841.67)">
			<stop  offset="0" style="stop-color:#66A569"/>
			<stop  offset="1" style="stop-color:#A4CD9E"/>
		</linearGradient>
		<path class="st19" d="M37.9,410.7c0.8-1.4,4.1-2.4,5.6-2.5c0,0,0.5,0.3,0.4,0.3c0.2,0.3,1.4-0.2,1.9-0.3c1.4-0.3,2,0.8,3,1.3
			c0.2,0.1,1-0.1,1.7,0.3c1.5,0.9,2.8,2.1,4,3.3l1-1c1.1-0.2,1.4-0.3,2.5-0.7c0.3,0.3,0.3,0.4,0.7,0.6c3.8,1.5,5.3,4.2,9.8,4.9
			c1.7,0.7,2.9,2.5,4.3,3.4c1.8,1.2,6.4,2.5,7.9,3.5c-0.9,0.3-1,0.2-1.9-0.3c-0.7,0.2-3.7,0.8-4.3,1.1c-4-1.8-7.5-0.1-11.1,1.5
			c-2.6,1.2-5.1,2.2-7.7,3.3c-1.6-0.7-3.2-1.3-4.9-1.9c-4,0.9-9.8,1.9-13.6,2.9c-0.1-0.3-1.3-0.2-1.6-0.3
			c-5.9-2.2-10.7-5.3-16.4-7.9c-2.2,0.5-2.9,0.8-4.9,1.9c-1.9-1.5-5.7-0.2-7.6-1.9c-0.4-0.3-1-1.1-1.4-1.4l0.6-0.8
			c2.2-1.4,4.6-1.7,6.6-3.1c0.3-0.2,1.1-0.7,1.4-0.8c3.4-1,7-1.3,10.4-2c0.3-0.1,1.3,0.3,1.7,0.4c1.6-0.2,3.6-2,4.6-2.3
			c0.2,0.2,0.2,0.3,0.5,0.4c1.4-0.5,0.9-0.3,2.2-0.3c0.8-0.5,0.5-0.6,1.6-1C36,411.1,36.8,410.8,37.9,410.7z"/>
		
			<linearGradient id="SVGID_12_" gradientUnits="userSpaceOnUse" x1="-1.3253" y1="427.8909" x2="-1.9737" y2="408.5551" gradientTransform="matrix(1 0 0 -1 0 841.67)">
			<stop  offset="0" style="stop-color:#3F7A3F"/>
			<stop  offset="1" style="stop-color:#659F5C"/>
		</linearGradient>
		<path class="st20" d="M-29,418.2c1.5,0.2,2.9-0.1,4.5-0.2c0.3-0.2,0.9-0.9,1.2-0.9c1.3,0.4,3.8-1.9,3.9-1.9c2.6,0,2.9-1.1,5-2.3
			c1,0.6,1.3,0.8,2.1,1.6c0.7,0,1.2,0,1.9,0.1c1.4,0.2,2.8-0.5,4-1c4.3,1.6,6.4,5.4,10.8,6.7c0.8,0.2,0.7,0.2,1.5,0l0.1,0.1
			c0.5,0.2,1,0.6,1.4,0.9c2,1.7,5.1,0.9,7,2.3c2-1.1,2.6-1.2,4.8-1.6c5.7,2.6,11.3,5.7,17.2,7.9c0.3,0.1,0.8,0.5,0.9,0.8
			c-2.1,0.6-4.7,2-6.9,2.5c-1.7,0.4-4.6-0.5-6.3-0.2c-0.9,0.2-3,1-4.1,1.4c-2.6-1.2-5.2-2.5-7.8-3.7c-1.4-0.6-3.2-0.7-4.5-1.5
			c-1.3-0.8-2.5-1.9-3.7-2.9c-2.4,0-5.3,0.1-7.6-0.2c-2.1-0.3-3.7-2-6-1.8c-1.7,0.1-3.3-0.1-4.9,0.6c-3.4,1-7,3-10.4,3.8
			c-2.8,0.7-5.5,0.6-8.5,1.3c0-0.3-0.1-0.5-0.3-0.7c-0.4,0-0.6,0.1-0.9,0.2c-0.4-0.2-1.6-1.7-2.1-2.2c-0.7-0.2-0.1,0.2-0.9,0.5
			c-0.3-0.2-0.4-0.4-0.7-0.7c-0.4,0.1-0.4,0.1-0.8,0.2l-0.6-0.3c0.2-0.7-1-1.6-1.4-2.4l0-0.1c2.2-2.1,3.6-1.4,5.5-2.5
			C-33.4,420.8-31,419.3-29,418.2L-29,418.2z"/>
	</g>
</g>
</svg>
