<?xml version="1.0" encoding="utf-8"?>
<!-- Generator: Adobe Illustrator 19.0.0, SVG Export Plug-In . SVG Version: 6.00 Build 0)  -->
<svg version="1.1" id="Layer_1" xmlns="http://www.w3.org/2000/svg" xmlns:xlink="http://www.w3.org/1999/xlink" x="0px" y="0px"
	 viewBox="-197 270.9 200 300" style="enable-background:new -197 270.9 200 300;" xml:space="preserve">
<style type="text/css">
	.st0{fill:#181818;}
	.st1{fill:#D7D7D8;}
	.st2{fill:#FDFDFC;}
	.st3{fill:#3979DF;}
	.st4{fill:#5A5D7C;}
	.st5{fill:#102E58;}
	.st6{fill:#FDE512;}
	.st7{fill:#39383B;}
	.st8{fill:#6A89F6;}
	.st9{fill:#F7CC34;}
	.st10{fill:#D8BC08;}
	.st11{fill:url(#SVGID_1_);}
	.st12{fill:#EA362A;}
	.st13{fill:#232325;}
	.st14{fill:#584010;}
	.st15{fill:#6D4A0D;}
	.st16{fill:#5F5F5F;}
	.st17{fill:#9F9F9E;}
	.st18{fill:#4254B9;}
</style>
<g id="svg">
	<g id="Achtergrond_lichaam">
		<g>
			<path class="st0" d="M-153.9,354.5c-3.4-1.4-5.3-4.6-3.8-8.2c0.6-1.5,1.8-2.6,3.3-3.2c5.7-2.2,11.3,4.1,6.6,9.9
				c0.5,1.5,1.2,2.5-0.3,3.5c1.7,6.5,2.2,12,2.7,18.6c10-37.5,75.7-40.4,93.7-7.9c1.4,2.5,2.6,5.3,3.2,8.1
				c0.4-6.8,0.9-11.9,2.6-18.6c-1.5-1.2-0.9-1.9-0.2-3.5c-2.3-3-3-6.5,0.4-9.1c1.3-1,3-1.4,4.6-1.2c6,0.9,7.3,8.9,1.1,11.7h-0.1
				c-0.2,0.8-0.3,1.4-0.6,2.1c-0.4,0.9-1.1,1.2-1.3,2.1c-1.3,5.7-1.6,11.3-1.6,17.1c1.3,0.7,2.5,1.6,3,3c0.9,2.7,0.9,17.7,0.6,20.9
				c-0.1,1-0.3,2.2-0.8,3.1c-0.8,1.4-2.3,2.5-3.9,3c-1.1,0.3-2.3,0.3-3.5,0.4c-2.1,5.5-6.4,9.6-11.6,12.2l0.5,1.7
				c1.9,0.7,4.8,2.6,6.5,3.8c10.8,7.4,15.9,18.9,21.5,30.2c1.5,3,2,6.1,0.9,9.3c-0.9,2.7-3,5-5.6,6.2c-1.9,0.9-4.6,1.4-6.7,0.7
				c-1.4-0.4-1.9-1.7-2.9-2.5c-0.7-0.5-1.7-0.5-2.4-0.7c-1.2-0.3-2.5-2.4-3-3.4c-1.3-3.2-0.7-6.4,1.1-9.2c-1.5-4.4-3.9-9.4-6.6-13.1
				c0.5,7.4,1.4,14.9,1.4,22.3c0,3.9-7.2,5.8-10.3,6.4c-0.2,2.7-0.4,5.5-0.7,8.2c-0.2,2.1-0.5,4.3-0.7,6.4c2.4,1.8,3.4,3.9,3.8,7
				c0.6,4.6-0.7,11.3-6.2,12.2c-0.7,0.1-2,0-2.7,0h-1.5c-0.4,3.8,0.5,6.4-3.1,8.5c-0.3,2.1-0.3,4.8-1,6.8c-0.6,3-5.6,5.3-6,5.5
				c-4.9,1.9-9.5,2.7-14.1,2.5c-6.6-0.3-9.4-0.8-14.3-3.4c-1.8-0.9-3.5-2.5-4.7-5.3c-0.1-0.2-0.6-2-0.7-2.9
				c-0.1-1.1-0.2-2.2-0.3-3.2c-3.5-1.9-3-4.9-3.2-8.5h-2.4c-0.4,0-1.6,0.1-2,0c-6.9-1.5-7.4-13.1-3.7-17.6c0.5-0.6,1.1-1,1.7-1.4
				c-0.3-2.9-1.3-9.8-1.2-12.5l-0.2-2.1c-3.1-0.8-7.8-2.1-9.8-4.7c-0.9-1.1-0.4-5.6-0.3-7.1c0.2-3,0.4-6,0.7-8.9
				c0.2-2.4,0.3-6,0.7-8.2c-3.5,4.5-4.6,8.1-6.8,13.2c2.7,3.7,2.4,10.3-1.9,12.6c-0.8,0.4-1.5,0.4-2.4,0.4c-1.7,3.3-5,3.7-8.3,2.7
				c-2.8-0.9-5.1-2.9-6.4-5.5c-3-5.9,0.9-11.4,3.4-16.6c5.8-12.1,12.7-22,25-28l0.5-1.5c-1.9-1.1-3.7-2-5.2-3.6l-0.3-0.3
				c-2.6-2-5-5.5-6.1-8.6c-8.5,0-8.3-4.9-8.4-12c0-4.6-0.1-9.8,0.4-14.4c0.1-0.9,0.8-2,1.5-2.6c0.5-0.5,1.2-1,1.8-1.4
				c-0.1-5.5-0.4-11.1-1.5-16.5C-152.5,356.6-153.4,358.3-153.9,354.5z"/>
			<path id="Schaduw" class="st1" d="M-116.6,518.6c3.8,10.1,23.6,10,31.8,6.8c3-1.2,5.9-3,7.3-6.1c0.1-0.2,0.2-0.4,0.3-0.7
				c1,0.4,5.8,0.6,7.3,0.8c3.7,0.4,7.5,0.9,11.1,1.8c1.3,0.3,4.2,1.1,4.8,2.4c0.1,0.2,0.1,0.4,0.1,0.6c-0.2,0.5-0.7,0.8-1.1,1
				c-9.6,5.1-46.7,4.8-58.3,4.1c-7-0.4-15.9-0.9-22.7-3c-1.2-0.4-3-0.9-3.6-2.1c0-0.4,0-0.5,0.1-0.9c1.4-2.6,13.9-3.9,16.8-4.1
				C-121.1,519-118.2,519.1-116.6,518.6C-116.7,518.6-116.6,518.6-116.6,518.6z"/>
		</g>
	</g>
</g>
<g id="Benen_x2F_band">
	<path class="st2" d="M-82.6,500.2c0.9-0.1,1.3,0.1,1.6,1c-0.2,1.1-2,1.8-3,2.3c-2.9,1.4-4.7,2.5-6.6,5.3c-0.7,1-1.4,2.2-2.2,3.1
		l-0.1,0.1c-0.7,0.2-1.1,0.1-1.5-0.6c-0.2-0.9,0.3-1.3,0.7-2.1C-91.1,504.4-87.2,502.8-82.6,500.2z"/>
	<path class="st2" d="M-108.7,501.6c3.1,1.9,5.6,3.3,7.7,6.5c0.6,1,1.9,2.5,1.3,3.8c-0.3,0.1-0.5,0.2-0.9,0
		c-1.8-1.1-2.5-3.4-4.2-4.9c-1.6-1.4-2.5-2.2-4.5-3.1c-1-0.5-4.5-1.8-3.5-3.2c0.8-1.1,2.5,0.1,3.4,0.6L-108.7,501.6z"/>
	<path class="st1" d="M-83.6,511.9c0.7-0.1,0.8,0,1.2,0.6c0.1,0.7-0.2,1.1-0.8,1.4c-1.8,1.1-3.8,1.9-5.3,3.4
		c-1.3,1.3-2.2,2.7-3.3,4.2c-0.8,0-0.8,0-1.3-0.5c-0.6-1.9,3.8-5.9,5.4-6.9C-86.5,513.4-84.9,512.6-83.6,511.9z"/>
	<path class="st1" d="M-104.2,515.6c1.1,1,3.1,3.3,3.5,4.9c0.1,0.3-0.2,0.6-0.4,0.8c-0.6,0.2-0.3,0.2-1,0.1c-1.2-1.2-1.9-3-3.3-4.1
		c-1.1-1-2.4-1.7-3.7-2.4c-0.8-0.5-3-1.4-2.5-2.6c1.6-0.9,5.3,1.8,6.6,2.7L-104.2,515.6z"/>
	<path class="st2" d="M-104.9,476.8c2.6,0.8,5.5,4.3,5.8,7c0,0.4-0.3,0.7-0.6,1l-0.6-0.1c-0.9-0.6-1.8-3.1-2.5-4.3
		c-0.9-1.4-2.1-1.8-2.7-2.7C-105.3,477.1-105.4,477.3-104.9,476.8z"/>
	<path class="st2" d="M-89.5,476.9c0.3,0,0.4,0.1,0.6,0.1c0.4,0.4,0.3,0.2,0.3,0.8c-0.4,0.5-1.5,1.3-2.2,2c-1.2,1.3-1.8,4.4-3.1,5
		c-0.6-0.3-0.6-0.2-0.9-0.7C-95.2,481.7-91.5,478-89.5,476.9z"/>
	<path class="st2" d="M-111.8,486.1c3.9,1.2,11.9,6.5,12.4,11.5c0,0.3-0.4,0.7-0.7,1c-1.4-0.3-1.7-1.5-2.5-2.6
		c-1-1.7-2.2-2.8-3.5-4.2c-1.5-1.5-6.5-2.8-6.6-4.7C-112.4,486.5-112.2,486.4-111.8,486.1z"/>
	<path class="st2" d="M-82.7,486.3c0.8-0.1,1.2,0.2,1.4,1c-0.2,1.1-1.7,1.7-2.6,2.2c-2.9,1.5-5,2.7-6.9,5.5
		c-0.7,1.1-1.5,2.5-2.2,3.5l-0.1,0.1c-0.8,0-1.1,0-1.5-0.6c-0.2-1.2,1.5-3.6,2.2-4.6C-89.9,489.9-86.3,488.1-82.7,486.3L-82.7,486.3
		z"/>
	<path class="st3" d="M-128.9,491.1c0.4-2.1,0.6-3.3,2.3-4.7c0.3,2.8,0.4,7.2,0.8,9.7c0.3,1.2,0.5,4.7,0.6,6
		C-129.4,499.7-129.5,495.4-128.9,491.1z"/>
	<path class="st4" d="M-125.2,502.1c-4.2-2.4-4.2-6.7-3.7-11c0.2,1.8,0.2,7.3,2.8,6.9c0.4-0.6,0.3-1.2,0.3-1.9
		C-125.5,497.3-125.3,500.8-125.2,502.1z"/>
	<path class="st5" d="M-73.3,503.8c0.7-2.9,0.7-5.5,1.1-8.4c0.2,1.2,1,3.4,2.6,2.2c-0.2,1.7-0.5,3.6-0.8,5.3
		c-0.8,0.3-0.9,0.2-1.5,0.9H-73.3z"/>
	<path class="st6" d="M-115.8,478.2l0.2,0.1c0.1,0.1-0.9,8.5-0.9,9.5c-0.2,4.8-0.2,9.7,0.1,14.5c0.1,2.5,0.5,5,0.6,7.4
		c0,0.5-0.1,0.6-0.4,1c-0.5,0.2-0.7,0.1-1.3-0.1c-0.2-0.1-0.4-0.3-0.6-0.5c-1.2-1.4-1.2-15.7-1-18.3
		C-118.9,488.4-118.5,480.5-115.8,478.2z"/>
	<path class="st6" d="M-78.4,478.2c2,0.3,2.8,6.4,3.1,8.2c0.3,2.4,0.5,4.8,0.5,7.2c0.1,4.3-0.2,8.7-0.4,13c-0.1,1.2-0.1,2.8-0.8,3.8
		c-0.7,0.3-1.2,0.4-1.9,0c-0.4-0.7,0.6-9.5,0.6-11.3C-77.1,492.1-77.4,485.2-78.4,478.2z"/>
	<path class="st4" d="M-68.2,497.3c0.6-3.2,0.5-7.4,0.9-10.7l0.2-0.1c1.4,0.7,1.9,3.1,2.1,4.5c1,4.1,0.2,8.9-3.9,11.1
		C-68.7,500.8-68.5,498.6-68.2,497.3z"/>
	<path class="st7" d="M-65,491.1c1,4.1,0.2,8.9-3.9,11.1c0.1-1.3,0.3-3.6,0.6-4.9c0.2,0.3,0.2,0.3,0.6,0.5
		C-65.1,498.1-65.1,492.8-65,491.1L-65,491.1z"/>
	<path class="st8" d="M-126.5,472c2.9,0.6,6,1,8.9,1.5c1.1,0.2,2.5,0.2,3.6,0.4c-2.8,1.1-4.6,2.8-5.8,5.6c-1.5,3.7-1.9,9.5-1.8,13.5
		c0,2,0.4,5.1-2.5,4.8c-0.5-4.2-0.7-8.4-1.2-12.6c-0.4-3.9-0.9-7.5-1.2-11.4C-126.5,473.2-126.5,472.7-126.5,472z"/>
	<path class="st8" d="M-79.7,473.8c4.2-0.3,8.3-0.9,12.5-1.7c-0.4,5.5-1,10.9-1.6,16.4c-0.3,3-0.4,6.1-0.8,9c-1.6,1.2-2.4-1-2.6-2.2
		c0.4-5.2,0-14.4-3.5-18.7C-76.6,475.5-78.4,474.5-79.7,473.8z"/>
	<path class="st5" d="M-121.7,493c0.1,1.2,0.8,10.2,1,10.7h-2.4c-1.2-1.3-1-4.1-1-5.9C-121.3,498.2-121.7,495-121.7,493z"/>
</g>
<g id="Lichaam">
	<path class="st9" d="M-133,422.1c1.3,0.4,1.3,0.5,2.4,1.1c-0.3,0.8-0.7,4.6-0.8,5.7c-0.7,6.3-1.2,12.7-1.6,19c-1-0.4-2-0.7-3-1
		c0-0.8,0.1-1.8,0.2-2.7C-134.9,437.1-134.6,429.1-133,422.1z"/>
	<path class="st10" d="M-133,422.1c0.1-0.8,0.2-2.3,0.7-2.8c0.5,0,1,0.3,1.4,0.5c4.8,2,10.1,3.6,15.2,4.3c1.3,1.2,2.6,2.4,4,3.6
		c-1.6-0.2-2.5-0.3-4,0.3c-0.3-0.1-0.5-0.1-0.7-0.2c-0.3-0.2-2.5-0.7-3-0.8c-3.9-0.9-7.4-2.1-11.1-3.7
		C-131.7,422.6-131.7,422.5-133,422.1z"/>
	<path class="st9" d="M-136.5,454.5c0.7,0.6,2.1,1,3,1.3c0,1.7-0.1,9-0.7,10.2l-0.2,0.3c-1.2-0.6-2-1.2-2.7-2.3
		C-137,460.8-136.8,457.6-136.5,454.5z"/>
	<path class="st6" d="M-78,424.1c5.4-0.7,11.8-2.9,16.8-5c0.2,0.9,0.3,1.8,0.5,2.8c0.6,2.8,1,6.6,1.3,9.4c0.6,5.2,1.1,10.4,1.6,15.7
		c0.2,2.3,0.3,5.3,0.5,7.5c0.1,1,0.2,1.7,0.2,2.7c0.1,0.8,0.5,6,0.3,6.6c-0.5,1.6-1.7,2-3.2,2.7c-3.4,1.4-10.3,3-14.1,3.1
		c-1.9,0.6-7.7,0.8-10,1.1c-2.5,0.2-8.5,0.6-10.9,0.3l-0.5-0.1c-0.3-0.5-0.1-28.5-0.2-31.9c4.1-3.8,9.3-7.8,13.6-11.7L-78,424.1z"/>
	<path class="st6" d="M-57.3,454.5c0.1,1,0.2,1.7,0.2,2.7c0.1,0.8,0.5,6,0.3,6.6c-0.5,1.6-1.7,2-3.2,2.7c-3.4,1.4-9,2.5-13.2,3.2
		c-1.9,0.3-8.1,0.9-10.9,1.1c-2.5,0.2-8.5,0.6-10.9,0.3c0.5-0.5,2.3-10.1,1.9-10.8c11,0,22-1.5,32.6-4.5v-0.1
		C-59.6,455.5-57.9,455-57.3,454.5z"/>
	<path class="st9" d="M-57.3,454.5c0.1,1,0.2,1.7,0.2,2.7c0.1,0.8,0.5,6,0.3,6.6c-0.5,1.6-1.7,2-3.2,2.7c0.2-1.2-0.4-9.5-0.6-10.7
		v-0.1C-59.6,455.5-57.9,455-57.3,454.5z"/>
	<path class="st2" d="M-60.9,447.9c0.9-0.3,2.1-0.8,3-1c0.2,2.3,0.3,5.3,0.5,7.5c-0.6,0.5-2.3,1-3.1,1.3v0.1
		c-10.6,2.9-21.6,4.5-32.6,4.5l-0.3-0.1c-0.2-0.7,0-6.2-0.2-7.7l0.7-0.2c1.7,0.1,4.9-0.1,6.6-0.2c8.5-0.5,17-1.8,25.2-4.1
		L-60.9,447.9z"/>
	<path class="st1" d="M-60.9,447.9c0.9-0.3,2.1-0.8,3-1c0.2,2.3,0.3,5.3,0.5,7.5c-0.6,0.5-2.3,1-3.1,1.3c0-0.6,0-1.2-0.1-1.9
		c-0.1-1.5-0.2-4-0.4-5.6c-0.1-0.1-0.2-0.1-0.2-0.2L-60.9,447.9z"/>
	<path class="st9" d="M-63.2,423.3c0.8-0.4,1.6-0.9,2.4-1.4c0.6,2.8,1,6.6,1.3,9.4c0.6,5.2,1.1,10.4,1.6,15.7c-0.9,0.2-2.1,0.7-3,1
		c0-0.7,0-1.5-0.1-2.2C-61.6,438.3-61.9,430.6-63.2,423.3L-63.2,423.3z"/>
	<path class="st6" d="M-135.9,446.9c1,0.3,2,0.6,3,1l0.2,0.1c8.6,2.4,16.7,3.7,25.6,4.1c1.4,0.1,4.9,0.3,6.1,0.1l0.7,0.2
		c0.2,0.5,0.2,6.9,0,7.7c-0.2,0.2-0.1,0.2-0.4,0.2c-0.3,0.7-0.1,10.3-0.1,10.3l-7.2,0.3c-4.1,0-18-1.7-21.9-3
		c-0.5-0.1-4.5-1.6-4.5-1.6l0.2-0.3c0.6-1.1,0.7-8.5,0.7-10.2c-0.9-0.3-2.3-0.7-3-1.3C-136.4,451.9-136.2,449.4-135.9,446.9z"/>
	<path class="st10" d="M-78,424.1c5.4-0.7,11.8-2.9,16.8-5c0.2,0.9,0.3,1.8,0.5,2.8c-0.8,0.5-1.6,1-2.4,1.4
		c-2.8,1.2-4.9,2.1-7.9,2.9c-1.5,0.4-5.5,1.1-6.5,1.7c-0.6,0-1.1-0.1-1.7-0.1c-0.6-0.1-2-0.3-2.6-0.3L-78,424.1z"/>
	<path class="st2" d="M-135.9,446.9c1,0.3,2,0.6,3,1l0.2,0.1c8.6,2.4,16.7,3.7,25.6,4.1c1.4,0.1,4.9,0.3,6.1,0.1l0.7,0.2
		c0.2,0.5,0.2,6.9,0,7.7c-0.2,0.2-0.1,0.2-0.4,0.2c-0.5-0.1-6.4-0.2-7.5-0.3c-7.5-0.6-18.1-1.7-25.1-4.3h-0.1
		c-0.9-0.3-2.3-0.7-3-1.3C-136.4,451.9-136.2,449.4-135.9,446.9z"/>
	<path class="st1" d="M-135.9,446.9c1,0.3,2,0.6,3,1l0.2,0.1c-0.4,0.6-0.7,6.7-0.6,7.7h-0.1c-0.9-0.3-2.3-0.7-3-1.3
		C-136.4,451.9-136.2,449.4-135.9,446.9z"/>
	<path class="st6" d="M-133,447.9c0.3-6.3,0.9-12.7,1.6-19c0.1-1.1,0.5-4.9,0.8-5.7c3.7,1.6,3.3,1.3,7.2,2.7c0.6,0.1,6.7,1.7,7,1.9
		c1.5,1.8,5.2,4.9,7.1,6.6c2.7,2.3,5.7,5.1,8.4,7.3c0,2.6,0.2,8,0,10.5c-1.2,0.2-4.9,0-6.3,0c-8.9-0.5-17.1-1.7-25.6-4.1L-133,447.9
		z"/>
	<path class="st9" d="M-116.4,427.8c0.3,0.1,0.5,0.1,0.7,0.2c1.5-0.6,2.4-0.5,4-0.3c3.6,3,7.3,6.3,10.9,9.2c0.8,0.6,1.7,1.4,2.4,2.1
		v31.7l-2.4-0.1c0,0-0.2-9.6,0.1-10.3c0.3,0,0.2,0,0.4-0.2c0.1-0.8,0.1-7.2,0-7.7l-0.7-0.2c0.3-2.5,0.1-7.9,0.1-10.5
		c-2.7-2.2-5.7-5-8.4-7.3C-111.2,432.8-114.9,429.7-116.4,427.8z"/>
	
		<linearGradient id="SVGID_1_" gradientUnits="userSpaceOnUse" x1="-79.5183" y1="455.8899" x2="-96.488" y2="441.0227" gradientTransform="matrix(1 0 0 1 0 -0.4399)">
		<stop  offset="0" style="stop-color:#E8C403"/>
		<stop  offset="1" style="stop-color:#FFE811"/>
	</linearGradient>
	<path class="st11" d="M-95.5,439.1c4.1-3.8,9.3-7.8,13.6-11.7c0.6,0.1,2,0.2,2.6,0.3s1.1,0.1,1.7,0.1c-2.8,2.9-5.7,5.5-8.7,8.1
		c-2,1.8-4.6,3.9-6.5,5.8c-0.1,3.1-0.1,6.1-0.1,9.2c0,0.4,0,0.9,0,1.3l-0.7,0.2c0.2,1.5,0,6.9,0.2,7.7l0.3,0.1
		c0.4,0.6,0,10.4-0.1,10.8c-0.2,0.1-2.2-0.1-2.2-0.1C-95.6,470.6-95.4,442.5-95.5,439.1L-95.5,439.1z"/>
	<path class="st9" d="M-79.2,427.7c0.6,0.1,1.1,0.1,1.7,0.1c-2.8,2.9-5.7,5.5-8.7,8.1c-2,1.8-4.6,3.9-6.5,5.8
		c-0.1,3.1-0.1,6.1-0.1,9.2c0,0.4,0,0.9,0,1.3l-0.7,0.2c-0.5-0.7-0.3-9.8-0.3-11.4C-91.9,439.2-79.8,429.3-79.2,427.7L-79.2,427.7z"
		/>
	<path class="st12" d="M-72.6,435.5c1.7-0.2,3.4-0.3,5.1-0.3c0,3.5,0.1,7.1,0.1,10.6c-2,0-3.2,0-5.1,0.3
		C-72.5,442.5-72.5,439-72.6,435.5z"/>
	<path class="st13" d="M-82.8,436.2c2,0.1,3.3,0,5.3-0.2l0.1,2.4c0,2.6,0,5.4,0.1,7.9l-0.1,0.1c-0.6,0.3-4.3,0.1-5.2,0.1
		C-82.7,443.2-82.7,439.5-82.8,436.2z"/>
</g>
<g id="Hoofd">
	<path class="st9" d="M-122.9,364.1c3.1-1.2,6.8-2.1,10.1-2.7c10.9-2.1,22-2.1,32.9,0.1c2.7,0.5,6,1.2,8.5,2.3
		c0.1,0.1,0.3,0.1,0.4,0.2c0,0,5.1,2.1,5.9,2.5c2.1,1,3.5,2.4,5.2,3.3l0.3,0.2c3.9,3.4,5.3,5.9,7.3,10.6c1.8,6.1,1.2,17.1-2.1,22.8
		c-4.3,7.4-9.1,9.2-16.6,11.8l-1.8,0.5c-0.3,0.1-0.6,0.1-0.9,0.2c-13.7,3.3-30.9,3.4-44.7,0.4c-2.7-0.6-7.9-1.9-10.3-3.4
		c-1.2-0.4-3.8-1.9-4.7-2.7c-8.6-5.5-10.7-20.3-7.9-29.4c1.3-4.1,3.9-8,7.2-10.7l0.1-0.3c0.2,0,4.4-2.8,5.2-3.2
		C-126.6,365.5-125.2,364.9-122.9,364.1z"/>
	<path class="st14" d="M-59.7,370c3.9,3.4,5.3,5.9,7.3,10.6c1.8,6.1,1.2,17.1-2.1,22.8c-4.3,7.4-9.1,9.2-16.6,11.8
		c0,0-2.4,0.6-2.7,0.7c-13.7,3.3-30.9,3.4-44.7,0.4c-2.7-0.6-7.9-1.9-10.3-3.4c0,0,0.3-0.2,1.2-0.1c0.3,0,2.1,0.7,2.4,0.8
		c2.1,0.8,4,1.3,6.1,1.7c8.7,1.8,17.6,2.6,26.5,2.2c10.4-0.4,27-2.3,34.4-10.3c5-5.4,6.1-13.2,5.8-20.3s-2.7-11.5-7.9-16.2
		L-59.7,370z"/>
	<path class="st14" d="M-122.9,364.1c3.1-1.2,6.8-2.1,10.1-2.7c10.9-2.1,22-2.1,32.9,0.1c2.7,0.5,6,1.2,8.5,2.3
		c0.1,0.1,0.3,0.1,0.4,0.2c-0.1,0.1-0.3,0.2-0.4,0.4l-0.5,0.1c-14.2-5-36.3-5.1-50.5,0.2L-122.9,364.1z"/>
	<path class="st14" d="M-141.3,380.7c1.3-4.1,3.9-8,7.2-10.7l0.2,0.9c-2,1.9-3.5,3.4-4.8,5.8c-5.2,9.5-3.7,25.3,5.1,32.3
		c0.1,0.4,0.2,0.6,0.3,1.1C-142.1,404.6-144.1,389.8-141.3,380.7L-141.3,380.7z"/>
	<path class="st15" d="M-71.1,364c0,0,5.1,2.1,5.9,2.5c2.1,1,3.5,2.4,5.2,3.3l0.3,0.2l-0.4,0.6c-4.4-3-6.6-4.5-11.9-6.1l0.5-0.1
		C-71.3,364.3-71.2,364.2-71.1,364z"/>
	<path class="st15" d="M-128.7,366.6c2.1-1.1,3.5-1.7,5.8-2.5l0.5,0.6c-4.2,1.5-8,3.4-11.5,6.2l-0.2-0.9l0.1-0.3
		C-133.7,369.7-129.5,367-128.7,366.6z"/>
	<path class="st15" d="M-133.7,409.1c2.2,1.7,3.7,2.4,6.2,3.6c-1,0-1.2,0.1-1.2,0.1c-1.2-0.4-3.8-1.9-4.7-2.7
		C-133.5,409.7-133.6,409.5-133.7,409.1L-133.7,409.1z"/>
	<path class="st13" d="M-97.6,364.7c12.1,0,26.3,1.8,35.9,10c7.6,6.5,7.3,23.1,0.7,29.9c-7.6,7.7-24.5,8.8-35,9.1
		c-10.8,0-27.9-1.1-36.2-8.4c-7.1-6.3-7.7-23.1-0.7-29.8C-124,366.8-109.3,364.9-97.6,364.7z"/>
	<path class="st13" d="M-151,352.7c2.1-0.1,2,0.7,2.4,2.4l-1.9,0.6l-1.8,0.5C-152.7,354.2-153.2,353.6-151,352.7z"/>
	<path class="st16" d="M-41.6,345c0.7-0.4,1.6-0.2,2.1,0.5c0.4,0.7,0.2,1.6-0.5,2.1c-0.5,0.3-1,0.3-1.5,0.1
		c-0.5-0.3-0.8-0.8-0.8-1.3C-42.4,345.8-42.1,345.3-41.6,345z"/>
	<path class="st16" d="M-153.3,344.8c2.2-0.1,3,1.7,1.1,2.8C-154.3,347.9-155.4,346.1-153.3,344.8z"/>
	<path class="st13" d="M-149.6,356.4l0.2,0.2c0.6,2.6,1.4,5.1,1.5,7.8c0.1,1.7,0.4,3.4,0.5,5.1c0.1,1.6,0.5,3.6,0.4,5.2
		c-0.4,0.3-0.7,0.2-1.2,0.3c-0.2,0-0.3,0-0.5,0c-0.3-0.5-0.1-1.2-0.2-1.7c-0.5-4.7-0.6-12-1.9-16.4
		C-150.4,356.6-150.1,356.6-149.6,356.4L-149.6,356.4z"/>
	<path class="st13" d="M-44.4,356.5c0.6,0.1,1,0.1,1.4,0.5c0.2,1.2-1.2,4.7-1.4,6.4c-0.3,3.9-0.3,7.9-0.7,11.8
		c-0.6-0.1-1.3-0.1-1.9-0.2c0.2-5.1,0.4-10.3,1.8-15.3C-44.8,358.6-44.6,357.6-44.4,356.5L-44.4,356.5z"/>
	<path class="st17" d="M-47.3,376.8c-0.6,0-0.6,0.1-1-0.2c0.7-1.2,4.9,0.1,6,1.6l0.1,0.4c-0.3,0-0.2,0-0.6-0.2
		C-43.1,377.4-46.3,376.6-47.3,376.8z"/>
	<path class="st16" d="M-47.3,376.8c-0.6,0-0.6,0.1-1-0.2c0.7-1.2,4.9,0.1,6,1.6l0.1,0.4c-0.3,0-0.2,0-0.6-0.2
		c-0.1,0.3,0.2,1.2,0.2,1.7c0,1.6,0,3.1,0.1,4.6c-1.5-0.2-3.2-0.6-4.6-1.1C-47.3,382.2-47,377.4-47.3,376.8z"/>
	<path class="st2" d="M-111.7,394.4c-2.3,1.8-4.9,2.1-7.5,0.3c-5.8-4.3-3.9-18.8,5.1-16.9c0.8,0.2,1.6,0.7,2.2,1.3l0.5,0.5
		c3.2,4,3.4,9.7,0.5,13.9C-111.4,394.1-111,393.7-111.7,394.4z"/>
	<path class="st2" d="M-79.3,377.6c7.7-0.5,9.4,8.5,6.9,14.2c-0.9,2.1-2.4,3.2-4.5,4C-86.8,396.9-87.5,379.8-79.3,377.6z"/>
	<path class="st2" d="M-104.7,395.4c0.9,0,1.3,0.4,2,0.9c3,2.2,7.3,2.6,10.6,0.7c0.9-0.5,3.3-2.9,3.9-0.4c0.1,0.5-0.5,1.1-0.8,1.4
		c-4.6,3.6-11.1,3.8-15.8,0C-105.9,397.3-105.6,396.2-104.7,395.4L-104.7,395.4z"/>
	<path class="st17" d="M-151,378.3c-0.3,0.3-0.4,0.3-0.8,0.4v-0.2c0.6-0.9,1.1-1.4,2.1-1.8c0.9-0.4,3.2-0.9,3.9-0.2
		c-0.3,0.3-0.3,0.2-0.8,0.3C-148,376.9-150,377.1-151,378.3z"/>
	<path class="st16" d="M-151,378.3c-0.3,0.3-0.4,0.3-0.8,0.4v-0.2c0.6-0.9,1.1-1.4,2.1-1.8c0.9-0.4,3.2-0.9,3.9-0.2
		c-0.3,0.3-0.3,0.2-0.8,0.3c-0.2,2.3-0.2,4.6-0.2,6.9c-1.4,0.4-3.2,1-4.6,1.1C-151.4,383.2-151.6,379.8-151,378.3L-151,378.3z"/>
	<path class="st8" d="M-137.1,362.6c1,2.3,2.3,4.9,3.1,7.1l-0.1,0.3c-3.4,2.6-6,6.6-7.2,10.7c-0.8-0.2-2.2-0.5-2.8-1
		c-0.5-0.4-0.4-0.9-0.4-1.5C-143.4,372.2-140.7,367.3-137.1,362.6z"/>
	<path class="st8" d="M-56.9,362.6c4.2,5.2,6.8,10.3,7.6,17c-1,0.4-2.1,0.9-3.1,1.1c-1.9-4.7-3.4-7.2-7.3-10.6l-0.3-0.2
		C-58.9,367.4-57.8,365-56.9,362.6L-56.9,362.6z"/>
	<path class="st6" d="M-66.9,354.2c1.3,0.6,4.4,2.9,5.5,3.9c1.3,1.2,3.4,3.1,4.5,4.5c-1,2.5-2.1,4.8-3.1,7.3
		c-1.7-0.9-3.1-2.3-5.2-3.3c-0.9-0.4-5.5-2.1-5.9-2.5C-69.8,361.2-67.9,357.1-66.9,354.2L-66.9,354.2z"/>
	<path class="st12" d="M-61.4,358c1.3,1.2,3.4,3.1,4.5,4.5c-1,2.5-2.1,4.8-3.1,7.3c-1.7-0.9-3.1-2.3-5.2-3.3L-61.4,358z"/>
	<path class="st6" d="M-127,354.1c0.6,1.6,4,8.9,4.1,9.9c-2.2,0.8-3.6,1.4-5.8,2.5c-0.8,0.4-5,3.1-5.2,3.2c-0.9-2.2-2.1-4.9-3.1-7.1
		c1.5-1.5,3-3,4.6-4.5S-129,355.4-127,354.1L-127,354.1z"/>
	<path class="st12" d="M-132.5,358.1c1.2,2.6,2.7,5.8,3.8,8.5c-0.8,0.4-5,3.1-5.2,3.2c-0.9-2.2-2.1-4.9-3.1-7.1
		C-135.6,361.1-134.1,359.6-132.5,358.1L-132.5,358.1z"/>
	<path class="st18" d="M-138.5,413.5c-1.5-1.3-2.3-2.3-3.4-3.9c-3-4.2-2.7-6.9-2.7-11.7v-10c0-1.7-0.1-8.7,0.1-9.7
		c0,0.6-0.1,1.1,0.4,1.5c0.6,0.5,2,0.8,2.8,1c-2.8,9.1-0.8,23.9,7.9,29.4c0.9,0.8,3.5,2.3,4.7,2.7c2.4,1.4,7.5,2.8,10.3,3.4
		c13.8,3,31,3,44.7-0.4c0.3-0.1,0.6-0.1,0.9-0.2l1.8-0.5c7.5-2.6,12.3-4.4,16.6-11.8c3.3-5.7,3.9-16.7,2.1-22.8
		c1-0.2,2.2-0.7,3.1-1.1c0.1,5.1,0.1,10.3,0.1,15.4c0,3,0.2,6.4-0.2,9.3c-0.1,1-2.2,4.8-2.2,4.8c-2.9,5.4-11.3,9.6-16.9,11.2
		c-18.6,5.6-48,5.7-65.4-3.7c-1.4-0.8-2.8-1.6-4.1-2.6L-138.5,413.5z"/>
	<path class="st8" d="M-127,354.1c1.1-0.9,3.8-2.1,5.1-2.7c10.5-4.7,23.1-6,34.4-4.4c5.9,0.8,11.7,2.5,17,5.1
		c1.1,0.5,2.7,1.3,3.6,2.1c-1,2.9-2.7,6.9-4,9.7l-0.2,0.1c-0.1-0.1-0.3-0.1-0.4-0.2c-2.6-1.1-5.8-1.8-8.5-2.3
		c-10.8-2.2-22-2.3-32.9-0.1c-3.2,0.6-7,1.5-10.1,2.7C-123.1,363-126.4,355.8-127,354.1L-127,354.1z"/>
</g>
<g id="Linker_arm">
	<path class="st13" d="M-150.1,460.7c0.3,0,0.7-0.1,1,0.1c1,0.5,0.3,2.4,0.4,3.3c0.1,0.4,0.3,0.9,0.4,1.3c-0.3,0.2-0.4,0.1-0.8,0.2
		C-151.3,464.6-151.8,462.4-150.1,460.7L-150.1,460.7z"/>
	<path class="st10" d="M-146.2,447.7l3,1.1c-0.7,1.6-1.4,3.5-2.1,5c-1.3-0.1-2.2-0.2-3.5-0.4C-148,451.9-146.9,449.3-146.2,447.7
		L-146.2,447.7z"/>
	<path class="st10" d="M-154.2,451.8c-1.3-0.6-3-1.4-3.9-2.6c-0.1-0.5,0.1-1,0.2-1.5c0.2-0.7,1.3-3.3,1.9-3.5
		c1.3-0.4,3.9,0.9,5.1,1.5C-151.7,446.6-153.6,450.5-154.2,451.8z"/>
	<path class="st6" d="M-154.2,451.8c-1.3-0.6-3-1.4-3.9-2.6c-0.1-0.5,0.1-1,0.2-1.5c0.2-0.7,1.3-3.3,1.9-3.5
		c1.3-0.4,3.9,0.9,5.1,1.5c1.4,0.6,3.3,1.3,4.6,2l3,1.1c-0.7,1.6-1.4,3.5-2.1,5c-1.3-0.1-2.2-0.2-3.5-0.4l-2.8-0.7
		c-0.5-0.2-0.9-0.3-1.3-0.5L-154.2,451.8z"/>
	<path class="st13" d="M-148.3,454.8c1,0.1,1.9,0.1,2.9,0.1c1.4,1.9,2,3.6,1.7,6c-0.2,1.4-1.2,4.5-3,4.3c-1.2-0.8-0.7-2.9-0.6-4.2
		l0.1,0.1h0.2C-146.3,459.5-147,456.1-148.3,454.8L-148.3,454.8z"/>
	<path class="st13" d="M-160.9,454.4c-0.1,3.1,0.1,5,2.2,7.5c1.1,1.3,4.7,3.1,6.4,2.6l0.1-0.1c0.8,1.4,1.3,1.7,2.7,2.4
		c-0.1,0.2-0.2,0.5-0.4,0.7c-0.5,0.8-1.5,1.4-2.4,1.6c-4.3,0.8-8.9-2.7-9.8-6.9C-162.6,459.7-162.2,456.4-160.9,454.4z"/>
	<path class="st7" d="M-159,450.3c3.1,2.2,6.7,4.3,10.7,4.4c1,0.1,1.9,0.1,2.9,0.1c1.4,1.9,2,3.6,1.7,6c-0.2,1.4-1.2,4.5-3,4.3
		c-1.2-0.8-0.7-2.9-0.6-4.2c-1.7-3.8-5.8-0.9-4.9,3.3c0.8,1.4,1.3,1.7,2.7,2.4c-0.1,0.2-0.2,0.5-0.4,0.7c-0.5,0.8-1.5,1.4-2.4,1.6
		c-4.3,0.8-8.9-2.7-9.8-6.9c-0.5-2.4-0.1-5.7,1.1-7.6C-160.3,453.2-159.4,451.5-159,450.3L-159,450.3z"/>
	<path class="st13" d="M-145.4,446.4c1.4-2.7,2.6-4.8,4.3-7.4c1.2-1.9,4.3-4.4,4.6-6.1c-0.1,1.7-0.1,3.8-0.2,5.4
		c-0.7,0.9-2.5,3.2-3,4.1c-1.5,2.4-0.9,2.4-3,4.6C-143.7,446.9-144.6,446.6-145.4,446.4z"/>
	<path class="st7" d="M-154.9,442.7c2.4-5.5,8.4-12.7,13-16.4c2-1.6,4.8-3,6.9-4.6c-0.7,3.8-1.4,7.2-1.6,11.1
		c-0.1,1.7-0.1,3.8-0.2,5.4c-0.7,0.9-2.5,3.2-3,4.1c-1.5,2.4-0.9,2.4-3,4.6c-0.8-0.2-1.8-0.5-2.6-0.7
		C-149.2,445-150.5,443.9-154.9,442.7L-154.9,442.7z"/>
</g>
<g id="Rechter_arm">
	<path class="st13" d="M-44.5,460.5c2.5,0.5,2.2,3.2,0.5,4.6c-0.5,0.2-0.8,0.3-1.4,0.3c-0.1-0.3,0.1-3.8,0.3-4.4
		C-45.1,460.8-44.8,460.7-44.5,460.5z"/>
	<path class="st6" d="M-43,445.8c1.6-0.8,3.4-1.5,5.3-1.6c2.9,4.3,2.9,5.4-1.7,7.6L-40,452c-0.8,0.3-1.5,0.6-2.4,0.9
		c-0.8,0.2-1.8,0.5-2.5,0.6c-1.1,0.2-2.4,0.3-3.5,0.3c-0.7-1.5-1.4-3.4-2-5l2.8-1.1C-46.2,447.1-44.5,446.4-43,445.8L-43,445.8z"/>
	<path class="st10" d="M-43,445.8c1.6-0.8,3.4-1.5,5.3-1.6c2.9,4.3,2.9,5.4-1.7,7.6C-40.3,450-41.8,447.1-43,445.8z"/>
	<path class="st10" d="M-50.5,448.8l2.8-1.1c0.4,0.7,2.5,5.5,2.8,5.8c-1.1,0.2-2.4,0.3-3.5,0.3C-49.1,452.3-49.9,450.3-50.5,448.8z"
		/>
	<path class="st13" d="M-48.6,455c1.1-0.1,2.2-0.2,3.3-0.3c-1.4,0.7-1.9,4.9-1.2,6.2c1.4,4.9-1.9,6.1-3.3,1.2
		C-50.6,459.5-49.9,457.3-48.6,455L-48.6,455z"/>
	<path class="st13" d="M-32.6,455.1c2.5,5,0.9,10.4-4.2,13c-1.7,0.9-3.2,0.8-5.1,0.8c-0.8-0.6-1.9-1.5-2.5-2.2
		c1.4-0.8,2.3-1,2.8-2.6l0.1,0.2c1.4,0.9,4.9-1.1,6-2C-33.1,460.5-32.8,457.8-32.6,455.1z"/>
	<path class="st7" d="M-45.3,454.7c4-0.6,7.2-1.6,10.4-4.2c0.9,1.5,1.6,3,2.3,4.6c2.5,5,0.9,10.4-4.2,13c-1.7,0.9-3.2,0.8-5.1,0.8
		c-0.8-0.6-1.9-1.5-2.5-2.2c1.4-0.8,2.3-1,2.8-2.6c0.7-3.8-2.6-6.8-4.9-3.2c1.4,4.9-1.9,6.1-3.3,1.2c-0.7-2.6-0.1-4.8,1.2-7.1
		C-47.5,454.9-46.4,454.8-45.3,454.7L-45.3,454.7z"/>
	<path class="st13" d="M-57.1,433.7c2.9,2.9,4.9,5.9,7,9.4c0.4,0.6,1.5,3.1,1.8,3.4c-1,0.3-1.8,0.6-2.8,0.8c-0.3-0.2-1-2.1-1.4-2.6
		c-0.8-1.1-1.7-2.5-2.5-3.6C-57.1,438.3-57.4,437.1-57.1,433.7L-57.1,433.7z"/>
	<path class="st7" d="M-58.8,422c7.3,3.9,11.9,8.1,16.7,15c1.1,1.6,2.4,4.4,3.4,5.8c-4.9,1.1-5.4,1.9-9.6,3.6
		c-1,0.3-1.8,0.6-2.8,0.8c-0.3-0.2-1-2.1-1.4-2.6c-0.8-1.1-1.7-2.5-2.5-3.6c-2.1-2.8-2.4-4-2.2-7.4C-57,431.4-58.2,424.4-58.8,422z"
		/>
</g>
</svg>
