<svg width="293" height="47" viewBox="-294 796.5 292.9 47.3" fill="none" xmlns="http://www.w3.org/2000/svg">
  <g>
    <path fill="#282828" d="M-218.7,828.9c0-0.2,0.1-0.7,0.3-0.8c9.1-4.5,11.1-17.4,4.8-25c-5.9-7.2-17-6.5-25.3-6.5h-16.3H-274c-2.8,0-7.2-0.1-9.8,0.1c-3.8,0.7-3.3,5-1.3,6c1.7,1,8.3,0.6,10.3,0.6h15.6c1.6,0,3.2,0,4.8,0c0.8,0,2.7-0.1,2.7,1c0.1,0.9,0.2,2.5,0.1,3.6c-0.1,0.8-0.6,1.4-1.4,1.5c-6.3,1-34.1,0.1-38.4,0.6c-1.4,0.2-2.6,1.9-2.6,3.3c0,0.8,0.3,1.7,0.9,2.3c0.9,1,2.7,1.3,4,1.3c10.9-0.1,21.9,0,32.8-0.1c0.7,0,2.1,0,3.2,0.1c0.7,0.1,1.3,0.7,1.4,1.5c0.1,0.9,0.1,2.1,0,3c-0.1,0.7-0.7,1.3-1.4,1.4c-1.7,0.3-4.6,0.2-5.8,0.2c-3.5,0.1-6.9,0.1-10.4,0.1c-3.6,0-11.1-0.8-8.4,5.5c0.9,2,7.2,1.4,9.1,1.4h13.1c0.7,0,2.8-0.2,3.4,0c0.1,0,0.2,0.2,0.2,0.2c0.6,0.9,0.6,3.6,0.4,4.6c-0.1,0.4-0.2,0.9-0.6,1.1c-0.9,0.6-13.8-0.2-16.6,0.4c-0.5,0.1-0.9,0.3-1.3,0.6c-0.8,0.9-1.6,1.9-1.6,3.1c0,0.9,0.3,1.7,0.9,2.3c1,1,2.4,1.3,3.7,1.3c2.5,0,28.1,0,28.1,0v-11.4c0.1-0.8,1.1-1.5,1.9-1.6c0,0,0,0,0,0c1.7,0,4.6-0.3,5.8,0.8c1.2,1.2,2.2,3,3.2,4.5c1.1,1.7,3.4,5.8,4.9,6.9c0.4,0.3,1.1,0.7,1.6,0.8c1.8,0.2,9,0,10.8,0c0.4,0,0.9-0.1,1-0.5C-209.5,841.4-217.6,830.9-218.7,828.9z M-227.3,820.1c-2.3,0.8-11.6,0.6-11.6,0.6V807c0,0,9.9-0.4,11.9,0.4C-221,810-221.2,817.6-227.3,820.1z" />
    <path fill="#282828" d="M-73.8,796.6h-13.3c-2.8,0-6.1-0.1-8.8,0c-0.2,1.8-0.2,44,0,46.7h14.6c10.5,0,17.4,0.8,26-6.8c4.6-4.5,6.9-9.6,7-16C-48.1,805.4-59.8,796.7-73.8,796.6z M-64.9,829.2c-5.1,4.7-11.7,3.6-18.4,3.5c0-0.1,0-26,0-26s4,0,6,0c4.6-0.1,9.1,0.2,12.5,3.7C-59.7,815.5-59.9,824.1-64.9,829.2z" />
    <path fill="#282828" d="M-157.1,818.1c-1.4-12.8-12.8-22.1-25.6-20.7c-12.8,1.4-22,12.8-20.6,25.5c1.3,12.7,12.7,22,25.4,20.7C-165.1,842.3-155.8,830.9-157.1,818.1z M-183.5,837.4c-6.8-2-10.9-5-13.3-11.9c-0.2-0.5,0.2-0.8,0.4-1c8.6-0.4,13.5,2.5,13.2,11.3C-183.2,836.4-183.1,836.8-183.5,837.4z M-163.9,825.6c-1.8,4.8-4.7,8.2-9.4,10.4c-1.2,0.5-2.7,0.9-4,1.2c-0.3-6.9,1.3-12,9-12.9c0.9-0.2,4-0.3,4.6,0.5C-163.7,825.2-163.7,825.3-163.9,825.6z M-178,813.9c-7-0.2-12.2,2.6-18.6,3.7c-1.2-0.9,2-6.4,2.8-7.5c2.9-4,6.4-5.6,11.2-6.6c9.7-1.4,17,5.2,19.1,14.3C-167.7,816.6-173.8,814.1-178,813.9z" />
    <path fill="#2563EB" d="M-180.8,817.9c2.1-0.2,3.9,1.3,4.1,3.4c0.2,2.1-1.3,3.9-3.3,4.2c-1.4,0.2-2.7-0.4-3.5-1.5c-0.8-1.1-1-2.6-0.4-3.8C-183.3,819-182.2,818-180.8,817.9z" />
    <path fill="#282828" d="M-121.7,796.8l-11.9-0.2l-21,46.9h7.9c1.1,0,4.6,0.2,5.3-0.6c1.7-2.2,1.9-6.2,3.9-8.3c0.3-0.4,2.1-0.4,2.6-0.4h13.2c0.9,0,3.1-0.3,3.9,0.5c1.7,1.5,2.4,8.7,5,8.7c3.9-0.1,12.1,0,12.1,0L-121.7,796.8z M-133.8,824.4l5.9-14.7l6,14.7H-133.8z" />
    <path fill="#282828" d="M-2.9,796.5L-2.9,796.5c1.4,0,2.3,1.2,1.6,2.4c-1.2,2.2-3.4,5.6-4.1,6.6l-8.3,13.5c-1.2,2-3.9,6-4.5,8c-0.5,1.7,0.1,11.1-0.2,14.6c-0.1,0.8-0.7,1.4-1.5,1.5c-2.3,0.2-7,0.1-9.6,0.1c-0.9,0-1.6-0.7-1.6-1.6c0-4.6,0.6-11.8-0.5-15.1c-0.5-1.5-4.9-8.7-6-10.4V816c-3-5.8-6.8-11-9.9-16.9c-0.6-1.1,0.2-2.4,1.4-2.4c3.3,0,8,0,9.9,0.1c0.9,0.1,4,5.8,4.9,7.3l5.7,9.4c0.6,1,2.1,1.1,2.8,0c0.5-0.7,0.9-1.5,1.3-2c1.9-3,3.7-6.1,5.5-9.1c0.9-1.5,2.1-4,3.4-5.2c0.3-0.3,0.6-0.4,1-0.4C-8.9,796.5-5.7,796.7-2.9,796.5z" />
  </g>
</svg>
