<?xml version="1.0" encoding="utf-8"?>
<!-- Generator: Adobe Illustrator 19.0.0, SVG Export Plug-In . SVG Version: 6.00 Build 0)  -->
<svg version="1.1" id="Layer_1" xmlns="http://www.w3.org/2000/svg" xmlns:xlink="http://www.w3.org/1999/xlink" x="0px" y="0px"
	 viewBox="-151 397.9 293 47" style="enable-background:new -151 397.9 293 47;" xml:space="preserve">
<style type="text/css">
	.st0{fill:#282828;}
	.st1{fill:#2563EB;}
</style>
<g>
	<path class="st0" d="M-75.2,430.1c0-0.2,0.1-0.7,0.3-0.8c9-4.5,11-17.3,4.8-24.8c-5.9-7.2-16.9-6.6-25.1-6.6h-16.2h-18.7
		c-2.8,0-7.2,0-9.7,0.2c-3.8,0.7-3.3,5-1.3,6c1.7,1,8.2,0.6,10.2,0.6h15.5c1.6,0,3.2,0,4.8,0c0.8,0,2.7-0.1,2.7,1
		c0.1,0.9,0.2,2.5,0.1,3.6c-0.1,0.8-0.6,1.4-1.4,1.5c-6.3,1-33.9,0.1-38.2,0.6c-1.4,0.2-2.6,1.9-2.6,3.3c0,0.8,0.3,1.7,0.9,2.3
		c0.9,1,2.7,1.3,4,1.3c10.8-0.1,21.8,0,32.6-0.1c0.7,0,2.1,0,3.2,0.1c0.7,0.1,1.3,0.7,1.4,1.5c0.1,0.9,0.1,2.1,0,3
		c-0.1,0.7-0.7,1.3-1.4,1.4c-1.7,0.3-4.6,0.2-5.8,0.2c-3.5,0.1-6.9,0.1-10.3,0.1c-3.6,0-11-0.8-8.3,5.5c0.9,2,7.2,1.4,9,1.4h13
		c0.7,0,2.8-0.2,3.4,0c0.1,0,0.2,0.2,0.2,0.2c0.6,0.9,0.6,3.6,0.4,4.6c-0.1,0.4-0.2,0.9-0.6,1.1c-0.9,0.6-13.7-0.2-16.5,0.4
		c-0.5,0.1-0.9,0.3-1.3,0.6c-0.8,0.9-1.6,1.9-1.6,3.1c0,0.9,0.3,1.7,0.9,2.3c1,1,2.4,1.3,3.7,1.3c2.5,0,27.9,0,27.9,0v-11.3
		c0.1-0.8,1.1-1.5,1.9-1.6l0,0c1.7,0,4.6-0.3,5.8,0.8c1.2,1.2,2.2,3,3.2,4.5c1.1,1.7,3.4,5.8,4.9,6.9c0.4,0.3,1.1,0.7,1.6,0.8
		c1.8,0.2,8.9,0,10.7,0c0.4,0,0.9-0.1,1-0.5C-66.1,442.5-74.1,432.1-75.2,430.1z M-83.8,421.4c-2.3,0.8-11.5,0.6-11.5,0.6v-13.6
		c0,0,9.8-0.4,11.8,0.4C-77.5,411.3-77.7,418.9-83.8,421.4z"/>
	<path class="st0" d="M68.8,397.9H55.5c-2.8,0-6.1-0.1-8.7,0c-0.2,1.8-0.2,43.8,0,46.5h14.5c10.4,0,17.3,0.8,25.8-6.8
		c4.6-4.5,6.9-9.5,7-15.9C94.3,406.8,82.7,398,68.8,397.9z M77.6,430.4c-5.1,4.7-11.6,3.6-18.3,3.5c0-0.1,0-25.8,0-25.8s4,0,6,0
		c4.6-0.1,9,0.2,12.4,3.7C82.8,416.8,82.6,425.4,77.6,430.4z"/>
	<path class="st0" d="M-13.6,419c-1.4-13-13-22.4-25.9-21c-13,1.4-22.3,13-20.8,25.8c1.3,12.9,12.9,22.3,25.7,21
		C-21.7,443.5-12.3,431.9-13.6,419z M-40.3,438.5c-6.9-2-11-5.1-13.5-12c-0.2-0.5,0.2-0.8,0.4-1c8.7-0.4,13.7,2.5,13.4,11.4
		C-40,437.5-39.9,437.9-40.3,438.5z M-20.5,426.6c-1.8,4.9-4.8,8.3-9.5,10.5c-1.2,0.5-2.7,0.9-4,1.2c-0.3-7,1.3-12.1,9.1-13.1
		c0.9-0.2,4-0.3,4.7,0.5C-20.3,426.2-20.3,426.3-20.5,426.6z M-36.9,414.8c-7.1-0.2-10.1,2.6-16.6,3.7c-1.2-0.9,2-6.5,2.8-7.6
		c2.9-4,6.5-5.7,11.3-6.7c9.8-1.4,17.2,5.3,19.3,14.5C-24.3,417.5-31.4,414.6-36.9,414.8z"/>
	<path class="st1" d="M-37.6,418.8c2.1-0.2,3.9,1.3,4.1,3.4c0.2,2.1-1.3,3.9-3.3,4.3c-1.4,0.2-2.7-0.4-3.5-1.5s-1-2.6-0.4-3.8
		C-40.1,419.9-39,418.9-37.6,418.8z"/>
	<path class="st0" d="M21.2,397.9H9.3l-20.9,46.7h7.8c0,0,4.6,0.2,5.3-0.6c1.7-2.2,1.9-6.2,3.9-8.2c0.3-0.4,2.1-0.4,2.6-0.4h13.1
		c0.9,0,3.1-0.3,3.9,0.5c1.7,1.5,2.4,8.6,5,8.6h12L21.2,397.9z M9.1,425.7L15,411l6,14.6H9.1z"/>
	<path class="st0" d="M139.2,397.9L139.2,397.9c1.4,0,2.3,1.2,1.6,2.4c-1.2,2.2-3.4,5.6-4.1,6.6l-8.2,13.4c-1.2,2-3.9,6-4.5,7.9
		c-0.5,1.7,0.1,11-0.2,14.5c-0.1,0.8-0.7,1.4-1.5,1.5c-2.3,0.2-7,0.1-9.5,0.1c-0.9,0-1.6-0.7-1.6-1.6c0-4.6,0.6-11.7-0.5-15
		c-0.5-1.5-4.9-8.6-6-10.3v-0.1c-3-5.8-6.8-10.9-9.8-16.8c-0.6-1.1,0.2-2.4,1.4-2.4c3.3,0,7.9,0,9.8,0.1c0.9,0.1,4,5.8,4.9,7.3
		l5.7,9.3c0.6,1,2.1,1.1,2.8,0c0.5-0.7,0.9-1.5,1.3-2c1.9-3,3.7-6.1,5.5-9c0.9-1.5,2.1-4,3.4-5.2c0.3-0.3,0.6-0.4,1-0.4
		C133.2,397.9,136.4,398.1,139.2,397.9z"/>
</g>
</svg>
