<svg version="1.1" xmlns="http://www.w3.org/2000/svg" viewBox="0 0 396 51.2" aria-hidden="true">
<style type="text/css">.st0{fill:#070808}</style>
<g transform="matrix(1.0746464311528277,0,0,1.0746464311528277,-12.553998258787558,-112.96599130752452)">
	<path class="st0" d="M155.2,118.2C155.2,118.2,155.2,118.2,155.2,118.2c0.1,0.1,0.1,0.1,0.1,0.1c1.8-1.8,4.6-4.6,8.3-8.2c5.2-5,14.1-4.8,18.4,1.4c2.6,3.8,2.8,8.8,0.6,12.8c-0.5,1-1.7,2.3-3.5,4.1c-4.9,4.8-7.8,7.6-8.5,8.4c-0.1,0.1-0.1,0.2,0,0.2l11.4,15.7c0,0,0,0.1,0,0.1c0,0,0,0,0,0h-10.2c-0.1,0-0.2-0.1-0.3-0.1l-12-16.4c-0.1-0.1-0.1-0.2,0-0.3c3.5-3.5,8-7.9,13.5-13.4c1.2-1.2,1.9-2,2.1-2.3c0.8-1.5,0.5-3.6-1-4.6c-1.7-1.2-3.6-0.4-4.9,0.9c-5.2,5.3-9.3,9.6-14,13.7c-0.1,0.1-0.1,0.1-0.1,0.2v22.3c0,0.1-0.1,0.2-0.2,0.2l0,0h-8.3c-0.1,0-0.2-0.1-0.2-0.2l0,0v-13c0-0.1,0-0.2,0.1-0.2l1.5-1.7c0.1-0.1,0.2-0.1,0.3,0c0,0,0,0,0,0l1.6,2c0.1,0.1,0.3,0.1,0.4,0.1l2-1.1c0.1-0.1,0.2-0.2,0.2-0.3l1-11.2c0-0.1-0.1-0.2-0.2-0.2c0,0,0,0,0,0l-6.8,0.6c-0.1,0-0.1,0-0.1-0.1c0,0,0,0,0,0v-13.4c0-0.1,0-0.2,0.1-0.3l8.3-6.8c0.1,0,0.2,0,0.2,0c0,0,0,0.1,0,0.1V118.2z"/>
	<path class="st0" d="M141.9,142c-0.1,0.1-0.2,0.1-0.2,0c0,0,0-0.1,0-0.1l-0.7-5.2c0-0.1,0-0.2,0.1-0.3l3.8-4c0.1-0.1,0.1-0.2,0-0.2l-2.1-2c0,0,0-0.1,0-0.2c0,0,0,0,0.1,0l8.6-1.2c0.1,0,0.2,0.1,0.3,0.2c0,0,0,0,0,0c0,0.3,0,0.6,0,0.9c-0.4,3.7-0.6,6.2-0.8,7.4c0,0.1,0,0.1-0.1,0.1c-0.1,0.1-0.2,0.1-0.2,0c-0.7-0.7-1.4-1.3-2-2c-0.1-0.1-0.2-0.1-0.3,0c0,0,0,0,0,0L141.9,142z"/>
</g>
<path class="st0" d="M25.4,51.2c-4.7,0-9.1-1.1-12.9-3.3c-3.9-2.3-6.9-5.4-9.1-9.2C1.1,34.8,0,30.3,0,25.5s1.1-9.1,3.4-13c2.2-3.9,5.4-7,9.3-9.2C16.7,1.1,21.2,0,26,0c3.5,0,6.9,0.6,10.3,2c3.3,1.3,6.3,3.1,8.7,5.4c0.4,0.3,0.5,0.9,0.2,1.4l-5.8,7.6c-0.2,0.2-0.5,0.4-0.8,0.5c-0.2,0-0.6-0.2-0.8-0.3c-1.6-1.6-3.4-2.9-5.6-3.7c-2.1-0.9-4.1-1.4-6.2-1.4c-2.5,0-4.8,0.6-6.8,1.8c-2.1,1.3-3.7,2.9-4.9,5.1s-1.7,4.5-1.7,7.2s0.6,5.1,1.7,7.2s2.9,3.9,4.9,5.2c2.1,1.2,4.4,1.8,6.8,1.8c1.3,0,2.6-0.2,4.1-0.6c1.3-0.4,2.6-1,3.8-1.6v-3.7h-5.5c-0.3,0-0.6-0.1-0.7-0.3c-0.2-0.2-0.3-0.4-0.3-0.7l0.1-8.9c0-0.6,0.5-1,1-1H44c0.6,0,1,0.5,1,1v20c0,0.3-0.2,0.6-0.5,0.9c-2.5,1.9-5.5,3.5-9,4.6C32,50.6,28.6,51.2,25.4,51.2z"/>
<path class="st0" d="M54.9,51.2V3.6c0-2,0.4-2.4,1-2.4h34.8c0.6,0,1,0.4,1,1v9c0,0.6-0.5,1-1,1H67.2v8.3h14.9c0.6,0,1,0.5,1,1v8.9c0,0.6-0.5,1-1,1H67.2v8.5h23.5c0.6,0,1,0.5,1,1v8.9c0,0.6-0.5,1-1,1H55.9C55.3,50.9,54.9,50.4,54.9,51.2z"/>
<path class="st0" d="M112.6,51.2c-0.6,0-1-0.5-1-1V12.6h-10.9c-0.6,0-1-0.4-1-1V2.5c0-0.6,0.5-1,1-1h34.1c0.6,0,1,0.5,1,1v9.1c0,0.6-0.4,1-1,1H124v37.5c0,0.6-0.5,1-1,1H112.6L112.6,51.2z"/>
<path class="st0" d="M239.5,12.6c-2.2-3.9-5.3-7-9.2-9.2c-3.9-2.2-8.3-3.3-13-3.3c-4.8,0-9.1,1.1-13,3.3c-3.9,2.2-6.9,5.3-9.2,9.2c-2.2,3.9-3.3,8.3-3.3,13c0,4.8,1.1,9.2,3.3,13.1c2.3,3.8,5.4,7,9.3,9.2c3.8,2.2,8.2,3.3,13,3.3c4.7,0,9.1-1.1,13-3.3c3.9-2.3,7-5.4,9.2-9.3c2.3-3.9,3.4-8.3,3.4-13C243,20.8,241.8,16.5,239.5,12.6z M228.6,33.5c-1.1,2.2-2.7,3.9-4.7,5.2c-1.9,1.2-4.1,1.8-6.4,1.8c-2.4,0-4.5-0.6-6.5-1.9c-2-1.2-3.6-2.9-4.9-5.1c-1.2-2.1-1.7-4.6-1.7-7.2c0-2.5,0.6-4.9,1.7-7.2c1.2-2.1,2.8-3.8,4.9-5.1c2-1.2,4.1-1.8,6.5-1.8c2.3,0,4.5,0.6,6.4,1.8c2,1.3,3.6,2.9,4.7,5.1c1.2,2.1,1.7,4.6,1.7,7.2C230.3,28.9,229.8,31.4,228.6,33.5z"/>
<path class="st0" d="M295.5,49.8L277.3,2.1c-0.2-0.4-0.6-0.6-1-0.6h-10.7c-0.4,0-0.8,0.2-1,0.6l-18.5,47.6c-0.1,0.3-0.1,0.7,0.2,1c0.2,0.3,0.5,0.5,0.8,0.5h0h10.7c0.4,0,0.8-0.2,1-0.6l2.9-7.2l17.9-0.1l2.9,7.3c0.2,0.4,0.6,0.6,1,0.6h11.1c0.3,0,0.6-0.2,0.8-0.5C295.6,50.4,295.6,50.1,295.5,49.8z M265,33.3l5.7-16.9l5.7,16.9H265z"/>
<path class="st0" d="M343.7,13.5c-2.1-3.8-5.1-6.8-8.9-8.8c-3.8-2.1-8.2-3.2-13-3.2h-18.1c-0.6,0-1,0.5-1,1v47.6c0,0.6,0.4,1,1,1h17.7c4.9,0,9.3-1,13.1-3.2c3.9-2.1,6.9-5,9.1-8.8c2.1-3.7,3.3-8,3.3-12.9C346.9,21.6,345.8,17.3,343.7,13.5z M332.7,33.6c-1,2.1-2.5,3.7-4.4,4.9c-1.8,1.1-4,1.7-6.3,1.7h-7V12.6h6.5c2.4,0,4.6,0.6,6.5,1.7c1.9,1.2,3.4,2.8,4.5,4.9c1.1,2.1,1.7,4.5,1.7,7.2C334.3,29.1,333.8,31.5,332.7,33.6z"/>
<path class="st0" d="M368,51.2c-0.6,0-1-0.5-1-1V31.3L350.2,3c-0.2-0.3-0.2-0.7,0.1-1c0.2-0.3,0.5-0.5,0.9-0.5h10.3c0.4,0,0.7,0.2,0.9,0.6l10.8,17.7l10.6-17.7c0.2-0.3,0.5-0.6,0.9-0.6H395c0.3,0,0.7,0.2,0.9,0.5s0.2,0.7,0,1l-16.5,27.9v19.2c0,0.6-0.5,1-1,1H368L368,51.2z"/>
</svg>
